<svg width="287" height="414" viewBox="0 0 287 414" fill="none" xmlns="http://www.w3.org/2000/svg">
<path d="M9.92261 58.2652C12.1918 43.9271 11.6696 26.4343 11.6696 11.7079H25.0451C29.983 11.7079 35.971 11.7459 40.8488 10.3449C45.3368 9.05593 50.0571 9.12539 54.8359 9.12539C60.2095 9.12539 65.7855 6.54286 71.2754 6.54286C80.2085 6.54286 89.1956 4.6876 98.2507 5.32334C113.66 6.40515 128.921 9.12539 144.39 9.12539C185.23 9.12539 225.993 2.66907 266.823 2.66907C269.193 2.66907 274.914 0.987531 277.268 2.95602C278.668 4.1267 277.632 16.5695 277.632 19.4555C277.632 35.3222 276.44 52.4927 278.04 68.1649C279.268 80.1905 278.089 92.6911 278.903 104.822C279.847 118.875 281.425 132.83 282.354 146.86C283.81 168.827 280.901 190.531 280.901 212.356C280.901 225.199 281.926 237.753 281.31 250.592C280.725 262.792 280.901 275.021 280.901 287.249C280.901 298.549 278.776 309.531 279.312 320.966C279.842 332.271 281.197 343.697 282.354 354.897C283.221 363.283 282.693 372.101 283.989 380.292C284.885 385.954 284.988 391.349 284.988 397.15C284.988 404.433 285.478 408.126 280.084 408.126C266.989 408.126 254.203 412 241.21 412C233.636 412 226.111 410.897 218.595 410.709C202.363 410.302 185.628 412.958 169.503 410.063C140.721 404.897 111.448 414.315 82.5832 411.354C69.0263 409.964 55.3379 410.126 41.757 409.346C33.6677 408.881 25.5592 406.835 17.5066 406.835C14.6187 406.835 3.47392 407.982 2.20242 400.953C1.28338 395.871 3.79187 388.765 3.79187 383.592C3.79187 371.479 5.42673 360.134 5.42673 348.082C5.42673 318.67 7.0616 289.561 7.0616 260.205C7.0616 246.297 6.24416 232.431 6.24416 218.382C6.24416 194.851 8.07592 171.646 7.87903 148.008C7.71354 128.141 6.00168 108.299 7.87903 88.4664C8.81698 78.558 8.38296 67.9937 9.92261 58.2652Z" fill="#96BAFF" stroke="black" stroke-width="3" stroke-linecap="round" stroke-linejoin="round"/>
</svg>
