<svg width="308" height="248" viewBox="0 0 308 248" fill="none" xmlns="http://www.w3.org/2000/svg">
<path d="M14.7629 196.311C15.7583 196.47 16.6866 196.478 17.5477 196.335C18.4187 196.206 19.2179 195.957 19.9451 195.586L19.6538 197.417C19.4607 198.784 18.8759 199.748 17.8996 200.31C16.9351 200.873 15.7832 201.048 14.4441 200.835C13.6856 200.715 12.996 200.429 12.3752 199.978C11.7543 199.526 11.3208 198.929 11.0746 198.185L6.81719 199.513C7.3564 200.935 8.24899 202.122 9.49496 203.074C10.7509 204.039 12.1788 204.649 13.7787 204.903C15.9474 205.248 17.8787 205.1 19.5726 204.458C21.2764 203.83 22.4956 202.621 23.2301 200.83C23.3928 200.418 23.5268 199.996 23.6321 199.563C23.7493 199.132 23.8474 198.668 23.9266 198.17L27.128 178.047L23.3772 177.45L23.1566 178.837C22.5792 178.113 21.8724 177.515 21.0364 177.042C20.2003 176.568 19.2372 176.245 18.1469 176.072C16.3337 175.783 14.6878 175.971 13.2091 176.635C11.7423 177.301 10.5199 178.339 9.54188 179.751C8.5639 181.163 7.92031 182.841 7.6111 184.784C7.30566 186.704 7.39279 188.486 7.87248 190.13C8.35217 191.774 9.17904 193.145 10.3531 194.243C11.5271 195.341 12.9971 196.03 14.7629 196.311ZM16.0315 192.576C14.9175 192.399 14.0433 191.974 13.409 191.302C12.7766 190.618 12.3581 189.774 12.1534 188.77C11.9605 187.767 11.9574 186.679 12.1441 185.506C12.3289 184.344 12.6744 183.318 13.1808 182.426C13.7009 181.525 14.3726 180.854 15.196 180.414C16.0331 179.964 17.0264 179.83 18.176 180.013C19.8114 180.273 20.9041 181.043 21.4541 182.321C22.0159 183.601 22.1479 185.177 21.85 187.05C21.554 188.91 20.9394 190.368 20.0061 191.422C19.0866 192.467 17.7617 192.851 16.0315 192.576ZM34.3422 199.426C35.871 199.669 37.2083 199.627 38.354 199.299C39.5136 198.961 40.587 198.324 41.5744 197.387L41.1643 199.965L44.9152 200.561L46.7902 188.776C46.9222 187.946 47.0082 187.176 47.0484 186.466C47.0904 185.743 46.9933 185.017 46.7571 184.287C46.3307 182.919 45.51 181.853 44.2951 181.088C43.0919 180.326 41.6371 179.809 39.9305 179.537C37.6789 179.179 35.8052 179.385 34.3095 180.156C32.8139 180.926 31.6999 182.086 30.9676 183.634L34.6832 185.483C35.1597 184.55 35.8329 183.946 36.7029 183.671C37.5729 183.397 38.4404 183.328 39.3055 183.466C40.6091 183.673 41.5266 184.093 42.058 184.724C42.5913 185.343 42.8118 186.211 42.7194 187.326C40.997 187.307 39.394 187.301 37.9105 187.308C36.4407 187.305 35.1757 187.39 34.1156 187.561C32.5157 187.841 31.2898 188.406 30.4379 189.254C29.5878 190.091 29.0516 191.209 28.8291 192.607C28.6613 193.662 28.7506 194.667 29.097 195.621C29.4552 196.577 30.0718 197.398 30.9469 198.084C31.8239 198.758 32.9557 199.206 34.3422 199.426ZM35.7385 196.149C34.7312 195.989 33.9976 195.635 33.5378 195.088C33.0899 194.543 32.9216 193.921 33.0328 193.221C33.1328 192.593 33.4153 192.116 33.8805 191.789C34.3575 191.464 34.985 191.223 35.7631 191.068C36.4745 190.95 37.3174 190.884 38.2918 190.868C39.2682 190.842 40.5396 190.831 42.1061 190.837C42.0226 191.286 41.9128 191.785 41.7768 192.334C41.6427 192.872 41.4519 193.346 41.2043 193.756C40.9924 194.172 40.6394 194.596 40.1454 195.027C39.6633 195.461 39.0512 195.795 38.3092 196.029C37.5672 196.264 36.7103 196.303 35.7385 196.149ZM49.8987 201.354L54.1828 202.036L58.3401 175.905L54.056 175.223L49.8987 201.354ZM59.8632 202.94L64.1473 203.621L68.3046 177.49L64.0205 176.808L59.8632 202.94ZM78.1156 206.39C79.9643 206.684 81.7285 206.479 83.4081 205.774C85.1015 205.059 86.4541 203.889 87.466 202.264L83.4388 200.311C82.2952 202 80.6509 202.674 78.5059 202.333C77.0482 202.101 75.9656 201.498 75.258 200.522C74.5524 199.535 74.2429 198.234 74.3296 196.62L88.2308 198.832C88.7644 196.547 88.8282 194.504 88.4223 192.702C88.0164 190.899 87.1878 189.425 85.9365 188.278C84.697 187.133 83.0817 186.402 81.0908 186.086C79.2065 185.786 77.4795 185.948 75.9097 186.574C74.3419 187.187 73.0316 188.206 71.9787 189.63C70.9259 191.054 70.2326 192.815 69.8989 194.913C69.5897 196.856 69.7251 198.64 70.3053 200.263C70.8973 201.888 71.8611 203.238 73.1968 204.314C74.5324 205.389 76.172 206.081 78.1156 206.39ZM80.6718 189.865C81.9991 190.076 82.9627 190.588 83.5625 191.4C84.176 192.202 84.4579 193.371 84.4081 194.906L74.951 193.402C75.9206 190.591 77.8276 189.412 80.6718 189.865ZM90.8595 207.871L95.1614 208.555L96.714 198.796C96.8912 197.682 97.2501 196.725 97.7907 195.924C98.3431 195.124 99.0955 194.558 100.048 194.223C100.695 193.974 101.391 193.878 102.135 193.935C102.881 193.981 103.531 194.133 104.086 194.392L104.722 190.392C103.878 190.124 102.986 190 102.047 190.021C101.11 190.03 100.247 190.221 99.4589 190.593C99.0163 190.778 98.6068 191.023 98.2303 191.328C97.8556 191.62 97.5159 191.961 97.211 192.35L97.7002 189.275L93.9138 188.672L90.8595 207.871ZM105.636 218.97L109.654 219.61L124.767 193.581L120.483 192.899L113.088 205.812L109.906 191.217L105.444 190.507L110.181 210.799L105.636 218.97ZM139.876 216.216C141.796 216.521 143.541 216.361 145.11 215.736C146.682 215.099 147.985 214.086 149.021 212.695C150.07 211.294 150.753 209.599 151.069 207.608C151.384 205.629 151.265 203.817 150.713 202.174C150.162 200.519 149.238 199.145 147.942 198.052C146.646 196.958 145.032 196.258 143.1 195.951C141.216 195.651 139.489 195.814 137.919 196.439C136.349 197.064 135.041 198.071 133.994 199.46C132.946 200.848 132.263 202.55 131.942 204.565C131.627 206.544 131.739 208.36 132.278 210.013C132.831 211.656 133.755 213.025 135.052 214.118C136.348 215.211 137.956 215.91 139.876 216.216ZM140.515 212.198C138.868 211.936 137.705 211.186 137.027 209.948C136.363 208.701 136.179 207.146 136.475 205.286C136.763 203.473 137.4 202.067 138.385 201.07C139.384 200.062 140.742 199.695 142.461 199.968C144.144 200.236 145.317 200.994 145.981 202.242C146.647 203.478 146.832 205.026 146.536 206.887C146.25 208.688 145.595 210.09 144.573 211.094C143.562 212.1 142.21 212.468 140.515 212.198ZM155.13 218.096L159.414 218.777L161.934 202.939L166.574 203.677L167.108 200.317L162.468 199.579L162.664 198.352C162.769 197.689 163.05 197.187 163.505 196.846C163.974 196.495 164.617 196.385 165.435 196.515L167.657 196.868L168.211 193.384L165.811 193.002C165.349 192.929 164.807 192.861 164.185 192.798C163.565 192.724 162.916 192.755 162.239 192.89C161.575 193.015 160.922 193.336 160.281 193.854C159.516 194.461 159.012 195.22 158.771 196.129C158.529 197.038 158.349 197.86 158.232 198.595L158.184 198.897L155.091 198.405L154.557 201.765L157.65 202.257L155.13 218.096ZM185.265 222.89L185.837 219.299C184.611 219.287 183.537 219.164 182.614 218.933C181.691 218.701 181.073 218.195 180.76 217.416C180.593 217.013 180.544 216.519 180.612 215.935C180.695 215.34 180.796 214.664 180.917 213.905L182.15 206.155L187.785 207.051L188.32 203.692L182.685 202.795L183.533 197.462L179.267 196.784L178.418 202.116L174.934 201.562L174.4 204.922L177.884 205.476L176.611 213.476C176.436 214.578 176.291 215.563 176.177 216.432C176.065 217.289 176.162 218.167 176.469 219.067C176.821 220.058 177.444 220.844 178.336 221.423C179.23 221.991 180.279 222.383 181.484 222.599C182.699 222.828 183.96 222.926 185.265 222.89ZM189.358 223.541L193.696 224.231L195.265 214.366C195.512 212.813 195.922 211.651 196.494 210.879C197.08 210.098 197.742 209.602 198.481 209.391C199.233 209.17 199.97 209.118 200.693 209.233C201.712 209.395 202.488 209.749 203.021 210.296C203.556 210.83 203.911 211.464 204.086 212.196C204.274 212.919 204.352 213.654 204.318 214.402C204.296 215.152 204.238 215.823 204.143 216.416L202.673 225.66L207.01 226.35L208.716 215.631C208.787 215.18 208.841 214.575 208.877 213.815C208.924 213.057 208.884 212.243 208.755 211.372C208.626 210.501 208.348 209.655 207.92 208.833C207.493 208 206.849 207.277 205.986 206.666C205.137 206.045 204.007 205.623 202.597 205.398C201.211 205.178 199.951 205.226 198.819 205.544C197.701 205.853 196.726 206.366 195.895 207.084L197.253 198.551L193.431 197.943L189.358 223.541ZM220.292 229.01C222.141 229.304 223.905 229.098 225.585 228.394C227.278 227.679 228.631 226.509 229.643 224.883L225.616 222.93C224.472 224.62 222.828 225.294 220.683 224.953C219.225 224.721 218.142 224.117 217.435 223.142C216.729 222.155 216.42 220.854 216.506 219.239L230.408 221.451C230.941 219.166 231.005 217.123 230.599 215.321C230.193 213.519 229.365 212.044 228.113 210.897C226.874 209.752 225.259 209.022 223.268 208.705C221.383 208.405 219.656 208.568 218.087 209.193C216.519 209.806 215.208 210.825 214.156 212.249C213.103 213.674 212.409 215.434 212.076 217.532C211.766 219.476 211.902 221.259 212.482 222.882C213.074 224.508 214.038 225.858 215.374 226.933C216.709 228.008 218.349 228.7 220.292 229.01ZM222.849 212.484C224.176 212.695 225.139 213.207 225.739 214.019C226.353 214.822 226.635 215.99 226.585 217.526L217.128 216.021C218.097 213.211 220.004 212.031 222.849 212.484ZM247.766 233.381C248.904 233.562 249.956 233.553 250.923 233.354C251.891 233.156 252.767 232.803 253.552 232.296L253.326 233.718L257.113 234.321L261.185 208.723L256.865 208.035L255.697 215.377C255.133 214.801 254.473 214.326 253.719 213.95C252.966 213.563 252.11 213.294 251.15 213.141C249.337 212.852 247.691 213.04 246.212 213.704C244.746 214.37 243.523 215.409 242.545 216.821C241.567 218.232 240.924 219.91 240.614 221.854C240.309 223.774 240.396 225.555 240.876 227.199C241.355 228.843 242.182 230.214 243.356 231.312C244.53 232.41 246 233.1 247.766 233.381ZM249.035 229.645C247.921 229.468 247.047 229.044 246.412 228.372C245.78 227.688 245.361 226.843 245.157 225.839C244.964 224.836 244.961 223.748 245.147 222.575C245.332 221.413 245.678 220.387 246.184 219.495C246.704 218.594 247.376 217.923 248.199 217.483C249.036 217.033 250.03 216.899 251.179 217.082C252.815 217.343 253.907 218.112 254.457 219.39C255.019 220.67 255.151 222.247 254.853 224.119C254.557 225.98 253.943 227.437 253.009 228.492C252.09 229.536 250.765 229.921 249.035 229.645ZM267.38 236.501C268.909 236.744 270.246 236.702 271.392 236.374C272.552 236.036 273.625 235.398 274.612 234.462L274.202 237.04L277.953 237.636L279.828 225.85C279.96 225.021 280.046 224.251 280.086 223.54C280.128 222.818 280.031 222.092 279.795 221.362C279.369 219.994 278.548 218.927 277.333 218.163C276.13 217.4 274.675 216.883 272.969 216.612C270.717 216.254 268.843 216.46 267.348 217.231C265.852 218.001 264.738 219.16 264.006 220.709L267.721 222.557C268.198 221.625 268.871 221.021 269.741 220.746C270.611 220.471 271.478 220.403 272.344 220.541C273.647 220.748 274.565 221.167 275.096 221.799C275.629 222.418 275.85 223.286 275.757 224.401C274.035 224.382 272.432 224.376 270.948 224.383C269.479 224.38 268.214 224.464 267.154 224.636C265.554 224.916 264.328 225.481 263.476 226.329C262.626 227.166 262.09 228.284 261.867 229.682C261.699 230.737 261.789 231.741 262.135 232.696C262.493 233.652 263.11 234.473 263.985 235.159C264.862 235.833 265.994 236.28 267.38 236.501ZM268.776 233.224C267.769 233.063 267.036 232.71 266.576 232.163C266.128 231.618 265.96 230.995 266.071 230.296C266.171 229.668 266.453 229.191 266.918 228.864C267.395 228.538 268.023 228.298 268.801 228.142C269.512 228.025 270.355 227.958 271.33 227.943C272.306 227.916 273.578 227.906 275.144 227.912C275.061 228.361 274.951 228.86 274.815 229.409C274.681 229.947 274.49 230.421 274.242 230.831C274.03 231.247 273.677 231.67 273.183 232.102C272.701 232.536 272.089 232.87 271.347 233.104C270.605 233.338 269.748 233.378 268.776 233.224ZM282.672 247.136L286.689 247.775L301.802 221.746L297.518 221.064L290.124 233.977L286.941 219.382L282.479 218.672L287.216 238.964L282.672 247.136Z" fill="black"/>
<path d="M154.47 24.8408C166.244 18.9501 179.086 15.8872 192.15 18.6985C192.882 21.7854 211.992 23.4387 215.545 25.153C224.038 29.2502 234.026 32.2331 241.313 38.8587C250.1 46.8488 258.564 56.5347 260.265 68.9295C261.961 81.2925 263.377 93.3773 260.465 105.766L260.353 106.244C257.959 116.434 255.076 128.708 248.584 137.046C244.36 142.472 241.471 148.579 236.192 153.157C233.491 155.5 230.301 156.52 227.317 158.369C224.474 160.13 222.047 162.746 219.411 164.815C208.825 173.12 190.633 173.805 177.558 173.298C167.093 172.892 155.38 170.416 145.525 166.977C138.468 164.515 132.178 161.429 127.394 155.469C117.557 143.215 109.35 130.844 105.648 115.23C100.1 91.8333 113.515 61.3464 128.33 43.5591C134.948 35.613 145.279 29.4398 154.47 24.8408Z" fill="#1400FF" stroke="black" stroke-width="5" stroke-linecap="round" stroke-linejoin="round"/>
<path d="M163.402 62.329C148.952 58.9328 133.982 58.8729 119.535 55.4775C116.48 58.3342 114.057 63.2379 113.955 68.0611C111.762 71.5271 109.447 75.2788 108.498 79.3141C108.11 80.9658 106.787 82.3933 106.407 84.0098C105.883 86.2396 105.125 88.5312 104.837 90.8043C104.6 92.6832 104.859 94.799 104.427 96.6363C103.982 98.5326 104.905 100.441 104.567 102.35C104.029 105.384 106.596 109.022 106.221 112.126C105.893 114.846 107.884 118.101 108.466 120.558C108.951 122.601 109.629 124.783 111.774 125.287L115.753 126.222C121.697 127.619 128.388 127.511 134.401 126.872C138.653 126.421 142.677 125.199 146.841 124.389C150.264 123.723 153.906 123.901 157.14 122.61C162.143 120.613 172.232 117.357 170.885 110.251C170.508 108.265 170.414 105.969 168.069 105.418C165.774 104.879 163.454 103.839 161.052 103.275C154.656 101.771 153.34 96.0659 158.303 91.2661C164.945 84.8432 176.897 82.3792 185.716 80.6646C187.775 80.2643 195.38 76.3657 191.966 73.1039C188.071 69.3827 183.039 66.9439 177.655 65.6787L163.402 62.329Z" fill="#1B8700" stroke="black" stroke-width="5" stroke-linecap="round" stroke-linejoin="round"/>
<path d="M211.417 41.5012C217.036 36.6602 224.861 31.7274 232.509 32.1713C234.465 32.6311 235.821 34.6705 237.415 35.9413C240.99 38.7923 244.451 41.7723 248.114 44.634C250.642 46.609 252.887 49.1957 254.86 51.711C256.735 54.1007 257.3 57.385 259.167 59.6735C261.362 62.3647 260.354 68.0522 260.76 71.3316C261.236 75.1753 260.895 79.032 260.923 82.868C260.955 87.1001 261.001 91.3106 260.566 95.5262C259.89 102.065 258.866 109.581 256.221 115.656C255.339 117.681 254.328 120.283 253.774 122.418C253.186 124.68 252.766 127.601 251.606 129.631C250.727 131.171 250.103 133.122 249.001 134.51C248.14 135.595 247.128 136.388 246.35 137.577C245.115 139.464 243.236 140.966 242.697 143.261C242.521 144.008 240.784 145.414 240.104 145.805C238.462 146.75 236.02 149.779 235.422 146.378C235.055 144.292 234.075 142.238 233.581 140.154C232.714 136.496 233.852 133.357 233.707 129.758C233.579 126.556 234.039 123.252 233.883 119.974C233.75 117.163 232.158 113.076 229.769 111.285L229.69 111.226C228.233 110.134 226.717 108.998 225.587 107.535C221.305 101.99 227.382 96.5777 230.653 92.5507C233.252 89.3516 233.424 85.9475 232.986 81.9869C232.462 77.2493 227.977 74.8058 224.145 72.8729C217.803 69.6751 213.957 64.8822 209.695 59.4162C207.259 56.2912 206.339 53.1613 207.223 49.3966C207.929 46.3934 208.993 43.5896 211.417 41.5012Z" fill="#1B8700" stroke="black" stroke-width="5" stroke-linecap="round" stroke-linejoin="round"/>
</svg>
