<svg width="359" height="342" viewBox="0 0 359 342" fill="none" xmlns="http://www.w3.org/2000/svg">
<path d="M11.9383 48.3845C14.7847 36.5643 14.1297 22.1434 14.1297 10.0031H30.9082C37.1023 10.0031 44.6138 10.0344 50.7326 8.87947C56.3624 7.81684 62.2836 7.87411 68.2783 7.87411C75.019 7.87411 82.0136 5.74509 88.9002 5.74509C100.106 5.74509 111.38 4.21563 122.738 4.73973C142.068 5.63157 161.212 7.87411 180.617 7.87411C231.847 7.87411 282.981 2.55157 334.199 2.55157C337.171 2.55157 344.348 1.16533 347.301 2.78813C349.057 3.75323 347.757 14.011 347.757 16.3902C347.757 29.4705 346.262 43.6257 348.27 56.5457C349.81 66.4595 348.33 76.7649 349.352 86.7658C350.535 98.3506 352.515 109.855 353.681 121.421C355.507 139.531 351.858 157.423 351.858 175.416C351.858 186.003 353.144 196.353 352.371 206.937C351.637 216.995 351.858 227.076 351.858 237.157C351.858 246.472 349.192 255.525 349.865 264.952C350.53 274.272 352.229 283.692 353.681 292.925C354.769 299.838 354.106 307.108 355.732 313.86C356.856 318.528 356.985 322.976 356.985 327.758C356.985 333.762 357.6 336.807 350.833 336.807C334.407 336.807 318.368 340 302.07 340C292.568 340 283.128 339.091 273.7 338.936C253.339 338.6 232.346 340.789 212.119 338.403C176.014 334.144 139.294 341.909 103.085 339.468C86.0789 338.321 68.908 338.455 51.8719 337.812C41.7245 337.429 31.553 335.742 21.4517 335.742C17.8291 335.742 3.84892 336.688 2.25392 330.893C1.10106 326.704 4.24775 320.845 4.24775 316.581C4.24775 306.595 6.29855 297.243 6.29855 287.307C6.29855 263.06 8.34935 239.063 8.34935 214.861C8.34935 203.396 7.32395 191.965 7.32395 180.383C7.32395 160.984 9.62174 141.855 9.37475 122.368C9.16716 105.989 7.01977 89.6316 9.37475 73.2821C10.5513 65.1136 10.0069 56.4045 11.9383 48.3845Z" fill="#8EDB96" stroke="black" stroke-width="3" stroke-linecap="round" stroke-linejoin="round"/>
</svg>
