<svg width="201" height="252" viewBox="0 0 201 252" fill="none" xmlns="http://www.w3.org/2000/svg">
<path d="M70.7301 220.423L74.783 219.823L74.2328 216.106L70.18 216.706L70.7301 220.423ZM73.8269 241.343L77.8798 240.743L75.1912 222.581L71.1384 223.181L73.8269 241.343ZM82.8835 240.002L86.9868 239.395L85.6052 230.061C85.3878 228.593 85.4276 227.43 85.7246 226.572C86.0311 225.702 86.4871 225.067 87.0925 224.668C87.7075 224.257 88.357 224 89.0409 223.899C90.005 223.756 90.8045 223.855 91.4393 224.197C92.0725 224.527 92.5718 224.997 92.9371 225.608C93.312 226.205 93.5901 226.846 93.7715 227.529C93.964 228.211 94.1018 228.832 94.1848 229.393L95.4793 238.137L99.5826 237.53L98.0815 227.39C98.0184 226.964 97.8954 226.403 97.7123 225.708C97.5405 225.012 97.2732 224.29 96.9104 223.542C96.5476 222.793 96.0568 222.11 95.4382 221.491C94.818 220.861 94.0326 220.393 93.0822 220.087C92.1414 219.768 91.0039 219.707 89.6698 219.905C88.358 220.099 87.2373 220.5 86.3076 221.107C85.3874 221.701 84.6546 222.44 84.1093 223.323L83.8106 221.305L80.195 221.84L82.8835 240.002ZM111.058 236.347C113.401 236 115.157 235.207 116.326 233.969C117.506 232.729 117.96 231.195 117.69 229.368C117.481 227.955 116.868 226.911 115.851 226.237C114.846 225.561 113.215 225.104 110.957 224.865C109.491 224.715 108.381 224.57 107.627 224.43C106.884 224.288 106.377 224.111 106.105 223.899C105.833 223.687 105.671 223.408 105.62 223.06C105.53 222.455 105.752 221.941 106.285 221.518C106.817 221.084 107.562 220.819 108.522 220.723C109.517 220.633 110.345 220.768 111.005 221.129C111.677 221.487 112.126 222.045 112.353 222.802L116.38 221.45C115.914 219.846 114.92 218.665 113.398 217.904C111.874 217.133 110.053 216.904 107.934 217.218C105.771 217.538 104.113 218.299 102.962 219.501C101.811 220.702 101.362 222.155 101.614 223.859C101.815 225.216 102.427 226.219 103.451 226.87C104.487 227.518 106.187 227.971 108.55 228.229C109.971 228.385 111.025 228.538 111.712 228.689C112.408 228.826 112.875 229.003 113.114 229.22C113.352 229.437 113.502 229.753 113.563 230.167C113.663 230.84 113.473 231.412 112.993 231.885C112.511 232.345 111.788 232.647 110.824 232.79C109.714 232.954 108.751 232.833 107.935 232.427C107.129 232.019 106.56 231.382 106.225 230.515L102.183 231.766C102.756 233.549 103.818 234.841 105.369 235.642C106.919 236.444 108.816 236.679 111.058 236.347ZM132.812 232.611L132.309 229.214C131.202 229.55 130.2 229.744 129.302 229.797C128.405 229.849 127.705 229.569 127.202 228.956C126.937 228.64 126.753 228.209 126.649 227.663C126.555 227.104 126.455 226.466 126.349 225.749L125.263 218.417L130.594 217.627L130.124 214.449L124.793 215.238L124.046 210.193L120.01 210.791L120.757 215.836L117.461 216.324L117.931 219.502L121.227 219.014L122.347 226.582C122.502 227.624 122.651 228.553 122.794 229.368C122.936 230.172 123.273 230.936 123.804 231.659C124.402 232.453 125.186 232.984 126.153 233.253C127.12 233.511 128.176 233.567 129.323 233.42C130.483 233.282 131.646 233.013 132.812 232.611ZM141.871 231.786C143.317 231.572 144.51 231.154 145.449 230.534C146.398 229.901 147.185 229.023 147.809 227.899L148.17 230.338L151.718 229.812L150.068 218.663C149.952 217.878 149.811 217.16 149.646 216.509C149.479 215.846 149.186 215.219 148.766 214.628C147.994 213.516 146.953 212.788 145.641 212.444C144.341 212.098 142.884 212.045 141.27 212.284C139.14 212.599 137.51 213.316 136.381 214.434C135.252 215.552 134.577 216.912 134.356 218.514L138.227 219.127C138.392 218.152 138.827 217.417 139.533 216.923C140.239 216.429 141.001 216.121 141.82 216C143.053 215.817 143.999 215.935 144.656 216.354C145.312 216.761 145.757 217.48 145.989 218.511C144.432 218.982 142.986 219.431 141.652 219.857C140.327 220.271 139.211 220.705 138.305 221.16C136.943 221.866 135.998 222.722 135.471 223.728C134.942 224.723 134.776 225.882 134.972 227.205C135.119 228.202 135.485 229.082 136.067 229.844C136.661 230.604 137.449 231.169 138.432 231.539C139.413 231.898 140.559 231.98 141.871 231.786ZM142.2 228.437C141.247 228.578 140.486 228.468 139.917 228.105C139.359 227.741 139.031 227.228 138.933 226.567C138.845 225.972 138.964 225.462 139.291 225.036C139.628 224.608 140.126 224.213 140.783 223.853C141.39 223.545 142.131 223.246 143.004 222.957C143.876 222.656 145.019 222.286 146.432 221.848C146.484 222.275 146.526 222.756 146.559 223.29C146.591 223.812 146.553 224.293 146.446 224.733C146.373 225.167 146.175 225.649 145.853 226.178C145.541 226.705 145.084 227.18 144.482 227.601C143.88 228.023 143.12 228.301 142.2 228.437Z" fill="black"/>
<path d="M7.36407 141.595C4.56504 105.8 2 69.8396 2 33.9344C14.8372 33.9344 31.9209 34.0144 44.1911 31.0047C71.9693 24.1911 97.4706 11.6429 125.091 4.34112C131.495 2.6481 138.016 3.03901 144.603 3.03901C149.911 3.03901 148.769 10.8912 149.182 14.3732C151.143 30.8976 154.032 47.5405 157.589 63.8237C162.879 88.0347 170.637 111.641 176.411 135.735C178.543 144.634 179.815 154.057 183.814 162.458C184.104 163.069 187.443 167.173 186.951 167.637C186.103 168.436 184.058 168.559 182.998 168.821C179.374 169.714 175.8 170.784 172.207 171.78C164.406 173.943 156.662 176.35 148.712 177.995C128.028 182.274 106.861 183.704 86.1312 187.642C73.3217 190.076 60.6166 193.041 47.9553 196.076C41.0653 197.728 34.1705 199.289 27.5342 201.728C26.7931 202.001 14.9349 207.302 14.5475 206.937C13.895 206.321 13.8376 203.236 13.7319 202.439C13.1981 198.41 12.3401 194.435 11.8812 190.394C10.0341 174.131 8.6402 157.914 7.36407 141.595Z" fill="white" stroke="black" stroke-width="4" stroke-linecap="round" stroke-linejoin="round"/>
<path d="M13.2813 78.1131C13.3407 68.818 13.6373 59.5273 13.6373 50.2271C13.9469 49.6428 12.89 48.1875 13.5582 48.1366C17.04 47.871 20.4921 47.4153 23.9611 47.0353C29.8713 46.3879 35.7521 45.3646 41.6223 44.4781C54.4976 42.5339 67.4705 40.5337 80.1685 37.7213C97.5211 33.8779 113.951 27.4195 130.719 21.8557C133.093 21.0683 136.387 19.6488 139.026 19.8026C139.893 19.8531 140.028 20.9993 140.232 21.5571C141.492 24.9976 143.848 28.6348 143.931 32.3457C144.094 39.6604 145.34 46.9582 146.462 54.1841C148.884 69.7816 151.919 85.1153 155.599 100.493C157.058 106.586 158.327 112.746 160.03 118.785C160.462 120.318 160.996 121.797 161.81 123.19C162.195 123.849 165.543 127.405 163.866 127.502C161.947 127.612 159.974 127.52 158.052 127.502C157.65 127.498 155.53 127.089 155.323 127.334C155.003 127.711 154.194 127.787 153.74 127.987C149.197 129.988 144.169 130.571 139.263 131.328C131.767 132.485 124.368 134.207 116.875 135.416C106.355 137.113 95.827 138.664 85.4688 141.127C69.3209 144.968 53.078 147.324 36.6384 149.657C35.0875 149.877 22.0425 152.064 21.8054 150.833C21.5972 149.753 21.412 148.61 21.1132 147.548C19.8127 142.927 19.5472 138.236 18.7992 133.531C16.9017 121.592 15.1353 109.466 14.3493 97.4131C14.1369 94.156 13.4043 90.9508 13.3011 87.6884C13.2004 84.5028 13.261 81.2998 13.2813 78.1131Z" fill="#DDE0E5" stroke="black" stroke-width="4" stroke-linecap="round" stroke-linejoin="round"/>
<path d="M71.2629 95.4638C63.335 90.1269 62.3487 81.2923 62.3487 72.7447C62.3487 66.5967 66.8309 55.7271 74.0588 54.3575C83.1752 52.6301 92.7512 57.2329 99.0581 63.2083C108.718 72.3604 104.055 90.0419 93.4004 96.1806C86.8799 99.9373 77.4211 99.6094 71.2629 95.4638Z" fill="white" stroke="black" stroke-width="4" stroke-linecap="round" stroke-linejoin="round"/>
<path d="M71.5796 78.7109C72.16 78.7592 72.535 79.053 72.3511 80.1234C72.3128 80.3463 71.8824 80.2752 72.2037 80.0081" stroke="black" stroke-width="4" stroke-linecap="round" stroke-linejoin="round"/>
<path d="M87.2581 74.0764C86.5975 70.8896 88.8269 73.6202 87.5477 73.6202" stroke="black" stroke-width="4" stroke-linecap="round" stroke-linejoin="round"/>
<path d="M76.4912 88.7667C79.3473 89.4665 82.7172 89.936 85.5866 89.0118C89.1684 87.8582 91.3357 84.7249 92.8629 81.8008" stroke="black" stroke-width="4" stroke-linecap="round" stroke-linejoin="round"/>
<path d="M86.0259 99.2402C86.1575 109.052 88.1027 118.284 90.1682 127.854C90.7412 130.508 91.5784 133.214 91.5784 135.922" stroke="black" stroke-width="4" stroke-linecap="round" stroke-linejoin="round"/>
<path d="M30.501 101.486C48.6986 101.852 66.886 107.261 82.853 114.795C85.6978 116.138 88.2036 118.837 90.9614 116.292C99.3495 108.552 109.135 102.585 118.459 95.9135C123.106 92.5892 128.583 87.1408 134.412 85.7656" stroke="black" stroke-width="4" stroke-linecap="round" stroke-linejoin="round"/>
</svg>
