<svg width="114" height="32" viewBox="0 0 114 32" fill="none" xmlns="http://www.w3.org/2000/svg">
<path fill-rule="evenodd" clip-rule="evenodd" d="M37.1868 7.65452C33.1275 12.2822 28.0133 19.527 25.1879 23.9389C24.4504 25.0905 23.7696 26.0012 23.1357 26.6148C22.8219 26.9186 22.4344 27.2342 21.9766 27.4429C21.502 27.6592 20.7973 27.8232 20.0421 27.5288C19.3088 27.2429 18.9099 26.6717 18.7063 26.2515C18.5024 25.8308 18.4027 25.3823 18.3475 24.9954C18.236 24.2147 18.25 23.2615 18.3265 22.2525C18.6257 18.3048 20.0346 11.7951 21.6709 5.49311C21.5005 5.66132 21.3211 5.8432 21.1328 6.03906C20.1204 7.09232 18.952 8.44241 17.693 9.99365C12.6417 16.2173 6.42355 25.3141 3.50431 30.3106C2.97961 31.2086 1.82753 31.5105 0.931055 30.9849C0.0345809 30.4593 -0.266805 29.3052 0.257891 28.4072C3.27737 23.2392 9.60597 13.9844 14.7743 7.6165C16.0702 6.01984 17.3113 4.58203 18.4233 3.4253C19.5024 2.30265 20.5701 1.32685 21.5115 0.770382C21.9519 0.510026 22.6213 0.182732 23.388 0.194053C23.8164 0.200379 24.295 0.313947 24.7345 0.615757C25.1685 0.913849 25.4414 1.3109 25.6052 1.68534C25.903 2.36623 25.9069 3.11965 25.8555 3.72503C25.7995 4.38369 25.6492 5.14905 25.4242 6.00895C23.8616 11.9795 22.5576 17.9403 22.155 21.6968C25.0602 17.1828 30.1942 9.91761 34.3611 5.1672C35.4222 3.9576 36.4488 2.87831 37.3815 2.03906C38.2557 1.25233 39.2449 0.49084 40.2182 0.171083C40.7259 0.00426391 41.4875 -0.127652 42.2721 0.211256C43.1143 0.575034 43.5498 1.28785 43.7494 1.91195C43.9389 2.50411 43.9681 3.15024 43.9361 3.76084C43.9029 4.39335 43.7961 5.11476 43.6274 5.91864C42.3617 11.9517 41.529 16.0579 41.4112 18.9546C41.2958 21.7932 41.889 22.8419 42.8336 23.4759C43.6233 24.0058 45.2339 23.9925 47.5983 22.6019C49.8152 21.298 52.0488 19.1202 53.5012 16.8136C54.0554 15.9335 55.2168 15.6701 56.0954 16.2252C56.974 16.7804 57.2369 17.9439 56.6828 18.824C54.9221 21.6202 52.2578 24.2311 49.5028 25.8514C46.8951 27.3851 43.4597 28.4317 40.74 26.6065C38.1753 24.8853 37.5167 22.1456 37.6527 18.8013C37.7864 15.5151 38.7084 11.0438 39.9462 5.14362C39.9773 4.99565 40.0049 4.85555 40.0292 4.72306C39.9856 4.76142 39.9409 4.80114 39.8952 4.84227C39.1162 5.54329 38.1984 6.50124 37.1868 7.65452Z" fill="black"/>
<path d="M54.6663 28.0277C59.9747 28.0277 63.4037 24.2314 63.4037 18.7244C63.4037 13.2826 60.0077 9.45377 54.6663 9.45377C49.4238 9.45377 45.9453 13.2174 45.9453 18.7244C45.9453 24.1826 49.3249 28.0277 54.6663 28.0277ZM54.6663 24.818C51.3362 24.818 49.6052 22.4392 49.6052 18.7244C49.6052 15.14 51.2043 12.6635 54.6663 12.6635C58.0294 12.6635 59.7439 15.0422 59.7439 18.7244C59.7439 22.3252 58.0623 24.818 54.6663 24.818Z" fill="black"/>
<path d="M74.8242 9.47006C72.2525 9.47006 70.2412 10.4151 68.9388 12.0443V9.94256H65.856V27.5389H69.351V18.3823C69.351 14.2113 71.3952 12.6961 73.8681 12.6961C77.6598 12.6961 78.3687 16.1502 78.3687 18.8874V27.5389H81.8637V17.7632C81.8637 15.0422 80.9569 9.47006 74.8242 9.47006Z" fill="black"/>
<path d="M87.482 19.702H100.753C101.116 13.3967 97.9504 9.45377 92.5101 9.45377C87.3006 9.45377 83.7891 13.1197 83.7891 18.8874C83.7891 24.3292 87.3501 28.0277 92.675 28.0277C96.1205 28.0277 99.1374 26.2192 100.522 23.0746L97.1426 22.0156C96.2689 23.8241 94.6533 24.818 92.5101 24.818C89.5097 24.818 87.7622 22.9769 87.482 19.702ZM92.642 12.468C95.3786 12.468 96.8623 13.9343 97.225 17.0463H87.5644C88.0095 14.0647 89.7075 12.468 92.642 12.468Z" fill="black"/>
<path d="M108.194 12.6798H113.486V9.94256H108.194V5.05469H104.732V9.94256H101.319V12.6798H104.732V20.6144C104.732 22.537 104.617 23.9545 105.391 25.4045C106.694 27.8485 110.139 28.1906 113.486 27.5389V24.6551C111.161 24.9972 109.348 24.9483 108.557 23.6123C108.128 22.8954 108.194 21.869 108.194 20.4515V12.6798Z" fill="black"/>
</svg>
