<svg width="136" height="29" viewBox="0 0 136 29" fill="none" xmlns="http://www.w3.org/2000/svg">
<path d="M122 18.104L105.272 27.776L105.272 8.456L122 18.104Z" fill="black"/>
<path d="M1 17C5.375 10.3333 9.75 10.3333 14.125 17C18.5 23.6667 22.875 23.6667 27.25 17C31.625 10.3333 36 10.3333 40.375 17C44.75 23.6667 49.125 23.6667 53.5 17C57.875 10.3333 62.25 10.3333 66.625 17C71 23.6667 75.375 23.6667 79.75 17C84.125 10.3333 88.5 10.3333 92.875 17C97.25 23.6667 101.625 23.6667 106 17" stroke="black" stroke-width="2" stroke-linecap="round"/>
</svg>
