<svg width="275" height="222" viewBox="0 0 275 222" fill="none" xmlns="http://www.w3.org/2000/svg">
<path d="M172.909 56.8474C175.205 42.7877 176.055 28.3964 178.978 14.4485C180.796 14.8483 183.254 14.5213 185.151 14.4908C189.961 14.4135 194.571 15.5103 199.235 16.5363C202.835 17.328 200.345 23.7501 200.33 26.5103C200.295 32.9685 200.162 38.909 202.464 45.065C204.302 49.9807 206.474 51.1484 210.696 53.3863C211.408 53.7639 217.519 55.0366 217.727 55.6561C218.444 57.7943 216.759 63.2103 216.292 65.4685C215.768 68.0016 215.221 70.5424 214.622 73.0589C213.805 76.4951 207.092 73.3211 204.812 72.5124C200.144 70.8567 194.962 67.9035 192.103 63.7654C191.197 62.4543 190.885 61.2671 190.306 60.0133C189.245 72.6826 189.612 85.5162 188.252 98.1686C187.561 104.604 186.202 110.782 184.811 117.103L184.734 117.453L182.14 129.247C181.858 130.532 181.737 132.532 181.035 133.673C179.174 136.699 175.888 139.503 172.68 141.01C167.251 143.561 162.566 147.723 156.103 147.459C144.916 147.001 131.806 144.049 123.94 135.518C115.913 126.812 113.438 113.295 115.911 102.053C118.061 92.2787 120.751 83.0121 127.669 75.5051C130.466 72.4701 133.952 71.2456 137.339 69.214C140.195 67.5006 157.028 65.8081 156.461 68.3887C155.622 72.201 155.738 76.6785 155.547 80.6173C155.274 86.2303 154.45 85.3214 150.148 87.2231C140.073 91.6772 132.645 100.748 135.488 112.015C137.145 118.583 140.428 121.475 146.986 122.83C151.871 123.84 157.575 123.228 160.451 118.722C163.392 114.112 164.137 108.841 165.294 103.576C168.662 88.2628 170.381 72.3194 172.909 56.8474Z" fill="#FF809E" stroke="black" stroke-width="5" stroke-linecap="round" stroke-linejoin="round"/>
<path d="M93.7132 182.682L97.5113 183.347L100.863 164.215L108.207 165.501L108.831 161.94L90.345 158.701L89.721 162.263L97.0652 163.549L93.7132 182.682ZM111.125 165.525L114.924 166.191L115.534 162.708L111.736 162.042L111.125 165.525ZM107.691 185.131L111.489 185.796L114.471 168.775L110.673 168.11L107.691 185.131ZM116.178 186.618L120.055 187.297L121.491 179.102L126.564 188.437L131.591 189.318L125.911 179.551L134.006 172.198L129.262 171.367L121.601 178.471L124.031 164.603L120.186 163.929L116.178 186.618ZM138.623 190.55L142.421 191.215L145.773 172.083L153.117 173.369L153.741 169.808L135.255 166.569L134.631 170.131L141.975 171.417L138.623 190.55ZM157.196 194.291C158.898 194.589 160.451 194.472 161.855 193.938C163.26 193.394 164.433 192.511 165.372 191.289C166.324 190.059 166.955 188.561 167.264 186.796C167.572 185.042 167.491 183.43 167.023 181.962C166.556 180.483 165.755 179.249 164.618 178.259C163.481 177.27 162.056 176.625 160.343 176.325C158.673 176.032 157.136 176.153 155.732 176.686C154.328 177.22 153.151 178.097 152.201 179.317C151.251 180.536 150.619 182.039 150.306 183.825C149.999 185.58 150.073 187.196 150.529 188.672C150.998 190.141 151.8 191.37 152.937 192.359C154.074 193.349 155.494 193.993 157.196 194.291ZM157.82 190.729C156.359 190.473 155.336 189.791 154.751 188.681C154.178 187.563 154.036 186.179 154.325 184.529C154.607 182.922 155.192 181.682 156.082 180.809C156.983 179.927 158.196 179.62 159.719 179.887C161.211 180.148 162.244 180.838 162.817 181.956C163.391 183.064 163.534 184.443 163.245 186.092C162.966 187.689 162.364 188.927 161.442 189.805C160.529 190.684 159.322 190.993 157.82 190.729ZM169.214 195.909L173.091 196.589L174.527 188.393L179.6 197.729L184.627 198.61L178.947 188.843L187.042 181.49L182.298 180.658L174.637 187.763L177.067 173.894L173.221 173.221L169.214 195.909Z" fill="black"/>
</svg>
