<svg width="197" height="217" viewBox="0 0 197 217" fill="none" xmlns="http://www.w3.org/2000/svg">
<path d="M40.0617 213.47C42.4604 212.738 44.174 211.632 45.2024 210.151C46.2423 208.666 46.4767 206.989 45.9055 205.118C45.4641 203.672 44.6581 202.676 43.4876 202.13C42.3287 201.58 40.5483 201.359 38.1466 201.464C36.5884 201.539 35.4034 201.562 34.5918 201.533C33.7917 201.502 33.2325 201.396 32.9144 201.217C32.5963 201.039 32.383 200.771 32.2744 200.415C32.0851 199.796 32.2364 199.222 32.7281 198.696C33.2163 198.158 33.9551 197.763 34.9447 197.511C35.9722 197.26 36.8602 197.271 37.6086 197.545C38.3685 197.815 38.9268 198.328 39.2833 199.085L43.2871 197.034C42.546 195.429 41.3189 194.348 39.6059 193.792C37.8894 193.224 35.9465 193.272 33.7774 193.934C31.5623 194.61 29.9468 195.668 28.9308 197.108C27.9148 198.547 27.6731 200.139 28.2057 201.883C28.6297 203.272 29.4291 204.226 30.604 204.746C31.7904 205.262 33.6414 205.468 36.1569 205.365C37.6692 205.305 38.7968 205.3 39.5395 205.349C40.2903 205.383 40.8075 205.495 41.0911 205.685C41.3748 205.874 41.5815 206.181 41.7111 206.606C41.9213 207.294 41.8123 207.924 41.3841 208.493C40.9523 209.052 40.2429 209.482 39.2559 209.783C38.1196 210.13 37.0922 210.155 36.1735 209.858C35.2663 209.558 34.5693 208.981 34.0824 208.125L30.0471 210.073C30.9281 211.849 32.2436 213.034 33.9936 213.629C35.7436 214.224 37.7663 214.171 40.0617 213.47ZM51.3185 209.469L55.5191 208.187L52.6021 198.632C52.1431 197.129 52.0015 195.905 52.1774 194.96C52.3612 194.001 52.7387 193.264 53.3098 192.751C53.8888 192.223 54.5284 191.852 55.2285 191.639C56.2155 191.337 57.0683 191.315 57.7867 191.573C58.5017 191.819 59.0985 192.232 59.5772 192.814C60.0639 193.381 60.456 194.007 60.7535 194.694C61.0626 195.378 61.3047 196.007 61.4799 196.581L64.2129 205.533L68.4135 204.25L65.2443 193.869C65.1111 193.433 64.894 192.866 64.5929 192.167C64.3033 191.465 63.9097 190.751 63.4119 190.025C62.9141 189.298 62.2926 188.66 61.5475 188.11C60.7988 187.548 59.9028 187.181 58.8594 187.011C57.824 186.825 56.6235 186.94 55.2577 187.357C53.9149 187.767 52.8046 188.364 51.9268 189.146C51.057 189.913 50.4061 190.802 49.9742 191.812L47.4514 183.549L43.7501 184.679L51.3185 209.469ZM66.7121 181.357L70.861 180.091L69.6995 176.286L65.5505 177.553L66.7121 181.357ZM73.2503 202.774L77.3993 201.507L71.723 182.914L67.574 184.181L73.2503 202.774ZM93.4536 196.606L92.3919 193.128C91.2853 193.654 90.2664 194.015 89.3352 194.212C88.404 194.408 87.6267 194.225 87.0033 193.663C86.6766 193.374 86.4159 192.951 86.2213 192.396C86.0346 191.826 85.8291 191.173 85.6049 190.439L83.3133 182.933L88.7707 181.267L87.7773 178.013L82.32 179.679L80.7432 174.514L76.6115 175.776L78.1883 180.94L74.814 181.97L75.8073 185.224L79.1816 184.194L81.5467 191.941C81.8726 193.008 82.1749 193.958 82.4536 194.788C82.7289 195.608 83.2014 196.354 83.8714 197.028C84.6232 197.765 85.527 198.198 86.5828 198.327C87.6351 198.445 88.75 198.336 89.9277 198.002C91.1203 197.676 92.2956 197.21 93.4536 196.606ZM99.94 203.659L104.123 202.382L101.312 193.172C102.083 193.438 102.903 193.576 103.772 193.587C104.656 193.606 105.58 193.468 106.544 193.174C108.266 192.648 109.626 191.762 110.626 190.516C111.637 189.266 112.267 187.794 112.515 186.1C112.763 184.406 112.603 182.629 112.036 180.77C111.461 178.888 110.592 177.315 109.428 176.051C108.276 174.785 106.922 173.925 105.366 173.471C103.81 173.018 102.154 173.059 100.398 173.595C99.3418 173.918 98.4325 174.371 97.6698 174.955C96.9071 175.539 96.2898 176.23 95.8178 177.026L95.4079 175.683L91.741 176.803L99.94 203.659ZM104.772 189.65C103.108 190.158 101.743 189.96 100.676 189.056C99.6061 188.14 98.7961 186.782 98.246 184.98C97.6924 183.166 97.5997 181.589 97.9679 180.247C98.3476 178.901 99.3293 177.987 100.913 177.503C102.026 177.163 103.023 177.16 103.903 177.494C104.79 177.812 105.548 178.384 106.177 179.209C106.813 180.018 107.302 180.985 107.646 182.11C107.993 183.246 108.134 184.326 108.07 185.349C108.018 186.369 107.725 187.261 107.193 188.026C106.658 188.779 105.851 189.32 104.772 189.65ZM127.038 186.917C128.897 186.349 130.395 185.441 131.532 184.19C132.665 182.928 133.391 181.446 133.712 179.742C134.04 178.023 133.91 176.199 133.321 174.271C132.736 172.355 131.835 170.779 130.618 169.545C129.397 168.299 127.964 167.469 126.319 167.055C124.675 166.642 122.917 166.72 121.046 167.291C119.222 167.848 117.741 168.752 116.604 170.002C115.468 171.253 114.734 172.732 114.402 174.439C114.07 176.146 114.202 177.976 114.797 179.927C115.383 181.843 116.28 183.426 117.489 184.676C118.707 185.91 120.138 186.734 121.782 187.148C123.427 187.562 125.179 187.485 127.038 186.917ZM125.85 183.026C124.255 183.513 122.881 183.349 121.729 182.534C120.585 181.704 119.738 180.388 119.187 178.586C118.651 176.83 118.607 175.288 119.055 173.96C119.51 172.616 120.57 171.69 122.234 171.182C123.864 170.685 125.251 170.851 126.395 171.681C127.536 172.499 128.381 173.81 128.931 175.612C129.464 177.356 129.491 178.904 129.013 180.254C128.546 181.601 127.491 182.525 125.85 183.026ZM146.852 180.868C149.251 180.136 150.964 179.029 151.993 177.548C153.033 176.064 153.267 174.386 152.696 172.516C152.254 171.07 151.449 170.073 150.278 169.527C149.119 168.978 147.339 168.756 144.937 168.862C143.379 168.936 142.194 168.959 141.382 168.931C140.582 168.899 140.023 168.794 139.705 168.615C139.387 168.436 139.173 168.169 139.065 167.813C138.876 167.193 139.027 166.62 139.519 166.093C140.007 165.555 140.746 165.161 141.735 164.909C142.763 164.658 143.651 164.669 144.399 164.942C145.159 165.212 145.717 165.725 146.074 166.482L150.078 164.432C149.336 162.826 148.109 161.746 146.396 161.19C144.68 160.622 142.737 160.669 140.568 161.332C138.353 162.008 136.737 163.066 135.721 164.505C134.705 165.944 134.464 167.536 134.996 169.281C135.42 170.67 136.22 171.624 137.394 172.143C138.581 172.659 140.432 172.866 142.947 172.763C144.46 172.703 145.587 172.697 146.33 172.747C147.081 172.781 147.598 172.893 147.882 173.082C148.165 173.272 148.372 173.579 148.502 174.003C148.712 174.692 148.603 175.321 148.174 175.891C147.743 176.449 147.033 176.879 146.046 177.181C144.91 177.527 143.883 177.553 142.964 177.256C142.057 176.956 141.36 176.378 140.873 175.523L136.838 177.47C137.719 179.246 139.034 180.432 140.784 181.027C142.534 181.622 144.557 181.569 146.852 180.868ZM169.041 173.529L167.979 170.052C166.872 170.578 165.854 170.939 164.922 171.136C163.991 171.332 163.214 171.149 162.59 170.587C162.264 170.297 162.003 169.875 161.808 169.32C161.622 168.749 161.416 168.097 161.192 167.362L158.901 159.856L164.358 158.19L163.365 154.936L157.907 156.603L156.33 151.438L152.199 152.699L153.775 157.864L150.401 158.894L151.395 162.148L154.769 161.118L157.134 168.865C157.46 169.932 157.762 170.881 158.041 171.712C158.316 172.531 158.789 173.278 159.459 173.952C160.21 174.688 161.114 175.121 162.17 175.251C163.222 175.368 164.337 175.26 165.515 174.926C166.708 174.599 167.883 174.134 169.041 173.529ZM180.375 170.634C182.774 169.901 184.488 168.795 185.516 167.314C186.556 165.829 186.79 164.152 186.219 162.281C185.778 160.835 184.972 159.839 183.801 159.293C182.642 158.743 180.862 158.522 178.46 158.628C176.902 158.702 175.717 158.725 174.906 158.696C174.105 158.665 173.546 158.559 173.228 158.38C172.91 158.202 172.697 157.934 172.588 157.578C172.399 156.959 172.55 156.386 173.042 155.859C173.53 155.321 174.269 154.926 175.258 154.674C176.286 154.423 177.174 154.434 177.922 154.708C178.682 154.978 179.24 155.491 179.597 156.248L183.601 154.197C182.86 152.592 181.633 151.511 179.92 150.955C178.203 150.388 176.26 150.435 174.091 151.097C171.876 151.773 170.261 152.831 169.245 154.271C168.229 155.71 167.987 157.302 168.519 159.046C168.943 160.435 169.743 161.389 170.918 161.909C172.104 162.425 173.955 162.631 176.471 162.528C177.983 162.468 179.111 162.463 179.853 162.512C180.604 162.546 181.121 162.658 181.405 162.848C181.689 163.037 181.895 163.344 182.025 163.769C182.235 164.457 182.126 165.087 181.698 165.657C181.266 166.215 180.557 166.645 179.57 166.946C178.433 167.293 177.406 167.318 176.487 167.021C175.58 166.721 174.883 166.144 174.396 165.288L170.361 167.236C171.242 169.012 172.557 170.197 174.307 170.792C176.057 171.387 178.08 171.334 180.375 170.634Z" fill="black"/>
<path d="M158.317 26.3721C148.922 31.2481 147.722 30.0718 136.761 30.2315C131.973 26.2558 129.399 14.3864 125.111 9.80782C122.151 6.64711 121.228 5.50818 110.44 3C100.948 6.22501 97.5852 5.49903 92.3429 8.07874C75.2314 16.4992 74.2318 32.0017 76.0768 47.1528C76.3668 49.5339 77.889 52.5895 75.5081 54.2372C73.6487 55.5239 68.4624 56.2066 66.1427 56.7875C55.5622 59.4373 42.6893 58.0454 31.8664 57.2283C21.1208 56.4171 11.8083 51.8926 3.58092 46.3027C1.76097 45.0662 4.76144 52.1681 5.1734 53.1352C9.78827 63.9686 17.2653 73.6628 25.9136 82.606C28.4999 85.2805 31.2365 87.645 35.2031 88.7773C35.384 88.8289 38.1981 89.3505 37.3264 89.7848C34.4717 91.2071 31.002 91.3591 27.7715 91.3591C23.8664 91.3591 20.2859 89.9108 16.4724 89.9108C16.1728 89.9108 19.6275 93.6642 19.9987 93.9725C27.7901 100.443 35.3648 105.809 46.123 108.362C48.0635 108.822 45.4217 111.194 44.8338 111.888C43.3519 113.637 41.7098 113.462 39.3739 113.462C34.401 113.462 45.5907 121.76 47.2604 122.814C51.2586 125.337 56.6325 127.586 61.4411 128.764C64.1732 129.434 64.2857 128.834 63.2611 130.748C58.1926 140.218 45.3368 141.604 34.5964 144.633C28.7676 146.277 22.8061 145.681 16.6999 145.767C12.6608 145.824 16.1991 146.103 17.2308 146.648C19.216 147.698 21.7957 147.629 23.6765 148.727C40.3515 158.457 59.0375 159.729 78.3518 156.22C100.127 152.265 118.262 140.319 127.036 123.097C136.013 105.478 147.89 88.1033 147.89 68.3744C147.89 66.1082 147.335 63.3188 147.928 61.1011C148.02 60.7596 151.628 59.2372 152.137 59.0545C156.222 57.5898 158.927 55.0418 162.564 53.0722C165.339 51.569 167 50.0215 167 47.2788C167 44.6223 154.106 46.0193 151.454 46.0193C149.014 46.0193 149.798 46.1393 150.62 44.6025C151.645 42.6883 153.802 40.7477 155.17 38.9665C158.643 34.4437 163.86 29.1408 163.588 23.4754C163.526 22.1995 159.087 25.9725 158.317 26.3721Z" fill="#96BAFF" stroke="black" stroke-width="5" stroke-linecap="round" stroke-linejoin="round"/>
</svg>
