<svg width="159" height="137" viewBox="0 0 159 137" fill="none" xmlns="http://www.w3.org/2000/svg">
<path d="M110 64.6973C84.9412 88.0286 63.9133 104.977 57.1269 97.6878C50.3405 90.3989 65.1532 65.5763 90.212 42.245C115.271 18.9137 141.086 5.90884 147.873 13.1978C154.659 20.4867 150 42.245 110 64.6973Z" fill="white"/>
<path d="M26.2013 101.311C32.8689 92.1869 47.1285 89.571 54.7518 96.3088C55.5993 98.3356 55.0555 103.212 54.96 104.93C54.5863 111.657 49.3424 117.451 45.342 122.452C39.4866 129.771 31.5738 135.107 22.0113 134.926C16.7073 134.826 10.6824 133.118 5.63209 131.498C2.11666 130.371 0.64168 131.738 3.53708 130.451C9.73683 127.695 15.0759 124.232 19.1544 118.642C22.9766 113.405 22.4652 106.424 26.2013 101.311Z" fill="#CBF69F"/>
<path d="M59.2453 104.073C55.5669 88.6234 34.7069 89.6717 26.2013 101.311C22.4652 106.424 22.9766 113.405 19.1544 118.642C15.0759 124.232 9.73683 127.695 3.53708 130.451C0.64168 131.738 2.11666 130.371 5.63209 131.498C10.6824 133.118 16.7073 134.826 22.0113 134.926C31.5738 135.107 39.4866 129.771 45.342 122.452C49.3423 117.451 54.5863 111.657 54.96 104.93C55.0736 102.885 55.8229 96.3621 54.103 95.5021" stroke="black" stroke-width="3" stroke-linecap="round" stroke-linejoin="round"/>
<path d="M54.1025 92.9321C54.1025 75.6 65.0564 100.739 60.1019 103.217" stroke="black" stroke-width="3" stroke-linecap="round" stroke-linejoin="round"/>
<path d="M55.7461 85.8394C59.1129 78.0427 65.9826 71.4935 71.7606 65.3945C78.3404 58.4491 84.767 51.3203 91.2706 44.2993C101.439 33.322 113.559 21.1967 126.551 13.5709C131.188 10.8494 136.506 11.2135 141.672 11.2135C146.145 11.2135 147.085 13.1452 148.663 17.2291C153.005 28.4688 146.085 39.1609 137.688 45.9251C131.18 51.1682 124.414 56.3481 117.447 60.9641C112.617 64.1638 107.597 66.53 103.302 70.4346C96.3597 76.7457 89.0089 82.4688 81.7595 88.4001C79.785 90.0156 77.4476 90.9632 75.3374 92.4241C72.8116 94.1727 70.9386 95.8022 68.1837 97.1796C64.8255 98.8588 61.4109 101.51 57.941 102.667" stroke="black" stroke-width="3" stroke-linecap="round" stroke-linejoin="round"/>
</svg>
