<svg width="395" height="440" viewBox="0 0 395 440" fill="none" xmlns="http://www.w3.org/2000/svg">
<path d="M7.4885 126.52C7.4885 88.0529 7.48575 49.9824 7.48575 11.4043C18.4271 4.87381 38.3073 3.56738 51.2529 3.56738C70.9447 3.56738 91.4383 2 111.652 2C166.334 2 220.973 8.26951 275.827 8.26951C304.817 8.26951 334.227 6.86682 363.069 3.91568C368.758 3.33364 382.914 1.33226 388.065 4.52522C392.124 7.04096 390.886 13.8737 390.886 17.6738C390.886 36.0046 395.199 54.8117 390.497 73.2286C386.001 90.8398 385.634 112.424 385.634 130.438C385.634 187.957 389.135 245.311 389.135 302.937C389.135 315.97 392.637 328.383 392.637 341.425V379.339C392.637 391.995 389.772 404.762 389.135 417.305C388.594 427.956 384.199 429.682 373.379 430.192C356.752 430.976 339.117 431.662 322.706 434.111C297.783 437.83 271.947 436.183 246.746 436.462C195.257 437.031 155.028 434.072 103.938 437.731C86.0482 439.013 62.773 436.218 45.0284 437.731C35.007 438.586 22.6862 436.112 12.7378 437.731C3.65873 439.209 6.51868 398.462 5.15166 373.12C3.56469 343.702 -0.109018 326.35 3.61041 297.712C6.83869 272.856 1.96102 247.415 4.86247 222.478C6.80996 205.74 5.73781 188.608 5.73781 171.799C5.73781 156.705 7.4885 141.658 7.4885 126.52Z" fill="white" stroke="black" stroke-width="3.7291" stroke-linecap="round" stroke-linejoin="round"/>
</svg>
