<svg width="291" height="261" viewBox="0 0 291 261" fill="none" xmlns="http://www.w3.org/2000/svg">
<path d="M7.66833 229.184L11.9692 228.778L11.6537 224.813L7.35284 225.219L7.66833 229.184ZM6.31239 260.479L9.25132 260.202C10.8761 260.048 12.1068 259.48 12.9434 258.497C13.7919 257.513 14.1543 256.243 14.0306 254.688L12.2033 231.721L7.90244 232.127L9.57552 253.157C9.65166 254.114 9.48822 254.858 9.08521 255.39C8.69414 255.921 7.96697 256.237 6.9037 256.338L5.98976 256.424L6.31239 260.479ZM27.4104 250.352C29.3458 250.169 31.002 249.579 32.3791 248.581C33.7552 247.571 34.7825 246.263 35.4611 244.656C36.1508 243.037 36.4156 241.222 36.2557 239.212C36.0968 237.214 35.5562 235.488 34.634 234.032C33.7107 232.565 32.4916 231.463 30.9766 230.726C29.4615 229.989 27.7303 229.713 25.783 229.896C23.8834 230.076 22.2451 230.664 20.8681 231.662C19.491 232.66 18.4572 233.963 17.7667 235.571C17.0761 237.178 16.8117 238.999 16.9735 241.033C17.1324 243.03 17.6675 244.764 18.5788 246.232C19.501 247.688 20.7197 248.784 22.2347 249.521C23.7498 250.258 25.475 250.535 27.4104 250.352ZM27.0878 246.297C25.4272 246.453 24.1225 246.016 23.1738 244.985C22.2361 243.941 21.6926 242.479 21.5432 240.601C21.3976 238.771 21.6857 237.249 22.4077 236.036C23.1407 234.81 24.3733 234.115 26.1056 233.952C27.8021 233.791 29.1191 234.234 30.0568 235.278C30.9936 236.31 31.5366 237.766 31.6861 239.644C31.8307 241.462 31.5246 242.985 30.7678 244.214C30.0228 245.441 28.7962 246.135 27.0878 246.297ZM39.5575 226.173L43.8763 225.766L43.5608 221.8L39.242 222.208L39.5575 226.173ZM41.3334 248.495L45.6522 248.087L44.1104 228.708L39.7916 229.116L41.3334 248.495ZM50.9843 247.584L55.3568 247.171L54.5645 237.212C54.4399 235.645 54.5648 234.416 54.9392 233.525C55.3247 232.621 55.851 231.975 56.5183 231.586C57.1965 231.185 57.9 230.95 58.6287 230.881C59.6562 230.784 60.4926 230.934 61.138 231.331C61.7826 231.716 62.2758 232.242 62.6177 232.909C62.9706 233.562 63.2184 234.256 63.361 234.99C63.5156 235.722 63.6167 236.388 63.6643 236.986L64.4066 246.316L68.7791 245.904L67.9183 235.084C67.8822 234.629 67.7923 234.029 67.6487 233.283C67.5171 232.536 67.2865 231.757 66.9571 230.944C66.6276 230.132 66.1586 229.38 65.5501 228.691C64.9405 227.989 64.1453 227.449 63.1644 227.072C62.1945 226.681 60.9987 226.553 59.577 226.688C58.1792 226.82 56.9682 227.181 55.944 227.772C54.9307 228.35 54.105 229.09 53.4667 229.994L53.2954 227.841L49.4425 228.205L50.9843 247.584ZM89.2214 244.516C91.1568 244.333 92.813 243.743 94.1901 242.745C95.5662 241.735 96.5935 240.427 97.2722 238.82C97.9618 237.2 98.2267 235.386 98.0668 233.376C97.9078 231.378 97.3672 229.652 96.445 228.196C95.5218 226.729 94.3026 225.626 92.7876 224.89C91.2726 224.153 89.5414 223.876 87.594 224.06C85.6945 224.24 84.0562 224.828 82.6791 225.826C81.3021 226.824 80.2683 228.127 79.5777 229.734C78.8871 231.342 78.6227 233.163 78.7845 235.197C78.9435 237.194 79.4786 238.928 80.3898 240.396C81.3121 241.852 82.5307 242.948 84.0458 243.685C85.5608 244.421 87.286 244.698 89.2214 244.516ZM88.8988 240.461C87.2382 240.617 85.9335 240.18 84.9849 239.149C84.0472 238.104 83.5036 236.643 83.3542 234.765C83.2086 232.935 83.4968 231.413 84.2188 230.2C84.9517 228.974 86.1844 228.279 87.9167 228.116C89.6131 227.955 90.9302 228.397 91.8679 229.442C92.8046 230.474 93.3477 231.929 93.4971 233.808C93.6417 235.626 93.3356 237.149 92.5788 238.378C91.8339 239.605 90.6072 240.299 88.8988 240.461ZM110.088 242.564C111.486 242.432 112.691 242.077 113.705 241.499C114.729 240.908 115.56 240.161 116.198 239.257L116.37 241.41L120.187 241.05L118.645 221.671L114.308 222.08L115.1 232.039C115.225 233.606 115.095 234.842 114.709 235.746C114.335 236.637 113.814 237.282 113.148 237.683C112.481 238.071 111.777 238.3 111.036 238.37C110.009 238.467 109.173 238.323 108.528 237.938C107.883 237.541 107.384 237.016 107.031 236.362C106.689 235.695 106.441 234.996 106.286 234.263C106.143 233.529 106.048 232.863 106.001 232.265L105.258 222.935L100.886 223.348L101.747 234.168C101.783 234.622 101.867 235.223 101.998 235.97C102.142 236.715 102.378 237.494 102.708 238.307C103.037 239.12 103.507 239.877 104.116 240.578C104.725 241.268 105.514 241.808 106.484 242.199C107.465 242.576 108.666 242.698 110.088 242.564ZM125.221 240.574L129.558 240.165L128.774 230.314C128.685 229.19 128.809 228.172 129.145 227.26C129.494 226.347 130.091 225.61 130.937 225.048C131.507 224.645 132.16 224.378 132.896 224.248C133.631 224.107 134.298 224.092 134.896 224.204L134.575 220.167C133.693 220.118 132.798 220.22 131.891 220.474C130.984 220.717 130.191 221.117 129.513 221.675C129.127 221.965 128.787 222.304 128.493 222.694C128.198 223.071 127.948 223.486 127.744 223.939L127.497 220.835L123.68 221.196L125.221 240.574ZM154.514 238.351C155.661 238.243 156.681 237.972 157.573 237.538C158.465 237.104 159.233 236.543 159.876 235.856L159.991 237.291L163.808 236.931L161.752 211.093L157.397 211.504L157.987 218.914C157.304 218.497 156.552 218.2 155.732 218.025C154.91 217.837 154.016 217.789 153.048 217.88C151.22 218.053 149.666 218.646 148.387 219.658C147.119 220.67 146.176 221.982 145.558 223.595C144.94 225.208 144.71 226.996 144.866 228.957C145.02 230.895 145.523 232.601 146.374 234.076C147.226 235.55 148.35 236.673 149.748 237.445C151.145 238.217 152.734 238.519 154.514 238.351ZM154.869 234.413C153.746 234.519 152.797 234.325 152.024 233.831C151.25 233.326 150.645 232.612 150.211 231.689C149.788 230.764 149.53 229.71 149.435 228.526C149.342 227.354 149.437 226.272 149.719 225.281C150.012 224.277 150.507 223.459 151.203 222.827C151.91 222.182 152.843 221.805 154.001 221.695C155.65 221.539 156.891 222.013 157.725 223.115C158.571 224.216 159.069 225.712 159.22 227.602C159.369 229.48 159.115 231.047 158.456 232.302C157.809 233.544 156.613 234.248 154.869 234.413ZM167.415 214.101L171.733 213.694L171.418 209.728L167.099 210.136L167.415 214.101ZM169.19 236.423L173.509 236.015L171.968 216.636L167.649 217.044L169.19 236.423ZM186.393 235.341C188.89 235.105 190.799 234.365 192.12 233.119C193.453 231.872 194.042 230.274 193.887 228.324C193.767 226.817 193.195 225.678 192.171 224.907C191.158 224.135 189.47 223.559 187.104 223.18C185.569 222.939 184.408 222.723 183.622 222.532C182.849 222.34 182.326 222.124 182.054 221.885C181.783 221.645 181.632 221.34 181.602 220.969C181.551 220.323 181.822 219.792 182.414 219.374C183.006 218.945 183.812 218.706 184.831 218.658C185.887 218.618 186.751 218.808 187.422 219.227C188.105 219.644 188.539 220.26 188.724 221.074L193.07 219.868C192.692 218.144 191.727 216.838 190.176 215.948C188.624 215.046 186.719 214.701 184.461 214.914C182.155 215.132 180.352 215.845 179.052 217.052C177.752 218.26 177.174 219.772 177.319 221.591C177.434 223.038 178.009 224.135 179.043 224.881C180.089 225.626 181.85 226.201 184.326 226.606C185.814 226.851 186.915 227.072 187.628 227.27C188.353 227.455 188.834 227.668 189.07 227.911C189.306 228.154 189.441 228.497 189.476 228.939C189.534 229.657 189.292 230.252 188.752 230.725C188.211 231.186 187.427 231.465 186.399 231.562C185.216 231.674 184.209 231.492 183.377 231.016C182.556 230.539 182.001 229.832 181.709 228.895L177.355 229.993C177.833 231.913 178.861 233.34 180.44 234.276C182.019 235.212 184.003 235.567 186.393 235.341ZM206.715 233.422C208.877 233.218 210.663 232.519 212.073 231.325C213.482 230.12 214.406 228.502 214.846 226.472L210.36 225.901C210.104 226.925 209.663 227.732 209.036 228.322C208.42 228.91 207.539 229.259 206.392 229.367C204.768 229.52 203.498 229.068 202.583 228.009C201.68 226.95 201.15 225.499 200.991 223.658C200.861 221.875 201.138 220.366 201.823 219.132C202.518 217.886 203.714 217.182 205.41 217.022C206.402 216.928 207.309 217.138 208.132 217.651C208.955 218.152 209.574 218.907 209.992 219.916L214.2 218.343C213.594 216.472 212.482 215.059 210.865 214.103C209.248 213.134 207.34 212.754 205.141 212.962C203.182 213.147 201.527 213.749 200.176 214.768C198.823 215.776 197.82 217.088 197.167 218.704C196.524 220.308 196.275 222.103 196.421 224.09C196.589 226.038 197.104 227.749 197.967 229.222C198.843 230.694 200.021 231.813 201.502 232.577C202.982 233.329 204.72 233.611 206.715 233.422ZM226.949 231.512C228.884 231.329 230.54 230.739 231.917 229.741C233.293 228.731 234.321 227.423 234.999 225.816C235.689 224.196 235.954 222.382 235.794 220.372C235.635 218.374 235.095 216.648 234.172 215.192C233.249 213.725 232.03 212.622 230.515 211.886C229 211.149 227.269 210.872 225.321 211.056C223.422 211.236 221.783 211.824 220.406 212.822C219.029 213.82 217.996 215.123 217.305 216.73C216.614 218.338 216.35 220.159 216.512 222.193C216.671 224.19 217.206 225.924 218.117 227.392C219.039 228.848 220.258 229.944 221.773 230.681C223.288 231.417 225.013 231.694 226.949 231.512ZM226.626 227.457C224.965 227.613 223.661 227.176 222.712 226.145C221.774 225.1 221.231 223.639 221.081 221.761C220.936 219.931 221.224 218.409 221.946 217.196C222.679 215.97 223.912 215.275 225.644 215.112C227.34 214.951 228.657 215.393 229.595 216.438C230.532 217.47 231.075 218.925 231.224 220.804C231.369 222.622 231.063 224.145 230.306 225.374C229.561 226.601 228.334 227.295 226.626 227.457ZM240.513 229.689L244.85 229.279L244.066 219.428C243.977 218.304 244.1 217.286 244.437 216.374C244.786 215.462 245.383 214.724 246.229 214.162C246.799 213.759 247.452 213.492 248.188 213.363C248.923 213.221 249.59 213.206 250.188 213.318L249.867 209.281C248.984 209.232 248.09 209.334 247.183 209.589C246.276 209.831 245.483 210.231 244.805 210.79C244.419 211.079 244.079 211.419 243.785 211.808C243.49 212.185 243.24 212.6 243.036 213.054L242.789 209.949L238.972 210.31L240.513 229.689ZM262.281 228.176C263.428 228.067 264.447 227.796 265.34 227.363C266.232 226.929 267 226.368 267.643 225.681L267.757 227.116L271.574 226.756L269.519 200.918L265.164 201.329L265.754 208.739C265.071 208.322 264.319 208.025 263.498 207.849C262.677 207.662 261.782 207.614 260.815 207.705C258.987 207.878 257.433 208.47 256.154 209.483C254.886 210.495 253.943 211.807 253.325 213.42C252.707 215.033 252.476 216.82 252.632 218.782C252.787 220.72 253.289 222.426 254.141 223.9C254.993 225.375 256.117 226.498 257.514 227.27C258.912 228.042 260.501 228.344 262.281 228.176ZM262.636 224.237C261.513 224.343 260.564 224.15 259.791 223.656C259.016 223.151 258.412 222.437 257.977 221.514C257.555 220.589 257.296 219.535 257.202 218.351C257.109 217.178 257.203 216.097 257.486 215.106C257.779 214.102 258.273 213.284 258.969 212.652C259.676 212.007 260.609 211.629 261.768 211.52C263.417 211.364 264.658 211.838 265.492 212.94C266.338 214.041 266.836 215.537 266.987 217.427C267.136 219.305 266.881 220.872 266.223 222.127C265.576 223.369 264.38 224.073 262.636 224.237ZM277.877 219.653L282.196 219.245L280.654 199.866L276.335 200.274L277.877 219.653ZM278.391 226.112L282.71 225.705L282.394 221.739L278.075 222.147L278.391 226.112Z" fill="black"/>
<path d="M93.3181 57.8784C94.2813 69.9181 96.0231 81.4786 96.0231 93.6821C96.0231 86.938 96.7606 81.2636 99.0625 74.2302C101.364 67.1968 102.783 60.0097 103.956 52.7115C105.454 43.3876 109.13 34.6622 111.767 25.6611C114.12 17.6289 120.7 -0.316206 132.252 3.53452C136.327 4.89288 137.055 8.19471 137.055 11.984C137.055 20.3288 136.621 29.7576 134.076 37.7578C132.027 44.1968 132.027 51.5213 130.49 58.1215C128.751 65.5873 126.076 73.2992 125.596 80.9776C125.114 88.6872 129.862 65.8521 134.198 59.4589C138.727 52.7798 142.519 45.4921 146.355 38.4265C148.44 34.5866 151.802 27.073 154.288 23.5C156.464 20.372 161.567 12.6813 164.5 10.2819C166.513 8.63498 170.762 7.77707 173.983 10.2819C180.927 15.683 173.885 30.0471 172.068 36.3597C167.704 51.52 161.04 66.0334 156.628 81.1599C155.571 84.7829 153.858 88.3733 153.498 92.1625C153.368 93.519 154.048 90.8787 154.288 90.3996L160.336 78.3029C164.284 70.4065 168.815 62.7269 173.709 55.3861C175.925 52.062 185.873 37.2659 189.24 34.9616C194.738 31.2001 201.697 37.8963 200.304 43.6238C196.274 60.1897 180.653 85.8488 176.141 102.314C174.77 107.315 173.195 111.804 171.247 116.599C170.56 118.292 169.88 119.456 169.88 121.31C169.88 125.218 173.751 118.12 174.591 116.842C179.302 109.673 184.104 102.051 189.575 95.445C191.838 92.7127 196.346 84.9288 200.304 84.9288C204.805 84.9288 207.6 85.8494 210.243 89.6094C211.596 91.5356 211.206 96.4422 210.607 98.6667C209.254 103.691 208.637 108.991 206.048 113.56C201.739 121.165 198.249 129.362 193.404 136.628C185.647 148.264 176.551 158.867 168.36 170.153C165.426 174.196 163.428 179.346 159.212 182.28C156.485 184.177 153.634 186.835 150.732 188.328C146.538 190.485 142.154 189.969 137.541 189.969C85.6285 186 89.405 170.574 85.6285 167.66C83.3363 165.892 82.3819 164.571 81.1302 162.068C78.2444 156.296 77.3735 148.979 76.2065 142.677C74.2698 132.219 74.2853 121.758 73.0455 111.219C71.0719 94.4437 72.4984 77.5998 72.4984 60.857C72.4984 55.8563 74.8572 49.5415 78.5164 46.0857C80.6856 44.0369 85.7393 42.0137 88.6375 43.6238C93.1758 46.1451 92.954 53.3269 93.3181 57.8784Z" fill="#8EDB96" stroke="black" stroke-width="5" stroke-linecap="round" stroke-linejoin="round"/>
</svg>
