<svg width="231" height="217" viewBox="0 0 231 217" fill="none" xmlns="http://www.w3.org/2000/svg">
<path d="M86.7532 188.034C88.8289 187.791 90.4139 187.137 91.5081 186.072C92.6122 185.007 93.0962 183.662 92.9598 182.038C92.8545 180.782 92.3744 179.842 91.5197 179.218C90.6748 178.593 89.2681 178.144 87.2995 177.872C86.0213 177.7 85.0552 177.541 84.4012 177.397C83.7571 177.251 83.3215 177.08 83.0946 176.886C82.8676 176.691 82.7412 176.439 82.7152 176.13C82.6701 175.592 82.8932 175.143 83.3845 174.784C83.8751 174.414 84.5441 174.2 85.3917 174.141C86.2699 174.088 86.9889 174.23 87.5487 174.567C88.1185 174.903 88.4819 175.408 88.6389 176.084L92.2486 174.997C91.9279 173.565 91.1207 172.492 89.8272 171.779C88.5328 171.055 86.9471 170.803 85.0699 171.024C83.1531 171.248 81.6562 171.877 80.5794 172.909C79.5025 173.941 79.0277 175.214 79.1548 176.729C79.256 177.935 79.7381 178.839 80.6011 179.442C81.4741 180.044 82.9408 180.491 85.0013 180.783C86.2397 180.96 87.1562 181.124 87.7506 181.275C88.3542 181.416 88.7545 181.585 88.9517 181.784C89.1489 181.982 89.2629 182.265 89.2939 182.634C89.344 183.232 89.1454 183.733 88.6979 184.138C88.2496 184.533 87.5984 184.78 86.7443 184.88C85.761 184.996 84.9224 184.863 84.2284 184.481C83.5444 184.098 83.0795 183.519 82.8339 182.743L79.2167 183.741C79.6211 185.333 80.4817 186.505 81.7985 187.257C83.1152 188.008 84.7668 188.267 86.7532 188.034ZM106.053 185.317L105.8 182.298C104.809 182.565 103.919 182.71 103.128 182.732C102.338 182.754 101.739 182.487 101.331 181.931C101.117 181.645 100.979 181.258 100.918 180.772C100.866 180.275 100.814 179.708 100.76 179.07L100.213 172.553L104.936 171.999L104.699 169.174L99.9761 169.728L99.5998 165.244L96.0243 165.663L96.4006 170.147L93.4806 170.49L93.7177 173.315L96.6377 172.972L97.2021 179.699C97.2799 180.626 97.3593 181.451 97.4402 182.177C97.5202 182.892 97.7733 183.576 98.1993 184.231C98.6808 184.949 99.3389 185.441 100.173 185.705C101.007 185.959 101.931 186.037 102.946 185.938C103.972 185.848 105.007 185.641 106.053 185.317ZM115.842 184.622C117.451 184.433 118.827 183.909 119.968 183.051C121.109 182.183 121.958 181.072 122.517 179.718C123.084 178.353 123.298 176.834 123.157 175.16C123.018 173.496 122.562 172.065 121.789 170.867C121.016 169.66 119.998 168.763 118.735 168.177C117.472 167.59 116.031 167.392 114.412 167.582C112.833 167.767 111.473 168.289 110.331 169.147C109.19 170.006 108.335 171.112 107.767 172.467C107.198 173.822 106.985 175.346 107.127 177.04C107.267 178.704 107.718 180.141 108.482 181.349C109.254 182.547 110.272 183.439 111.535 184.025C112.798 184.612 114.233 184.811 115.842 184.622ZM115.559 181.244C114.178 181.406 113.092 181.065 112.299 180.222C111.515 179.368 111.058 178.159 110.926 176.595C110.798 175.07 111.032 173.795 111.628 172.769C112.233 171.732 113.256 171.129 114.696 170.96C116.106 170.794 117.203 171.139 117.987 171.993C118.77 172.837 119.227 174.041 119.358 175.605C119.486 177.12 119.237 178.397 118.612 179.436C117.997 180.475 116.979 181.077 115.559 181.244ZM127.117 182.846L130.722 182.423L130.034 174.217C129.955 173.281 130.054 172.429 130.331 171.662C130.617 170.893 131.111 170.267 131.813 169.782C132.285 169.435 132.827 169.2 133.439 169.078C134.05 168.946 134.604 168.921 135.103 169.004L134.82 165.641C134.086 165.616 133.342 165.718 132.589 165.948C131.836 166.167 131.178 166.516 130.616 166.994C130.296 167.243 130.014 167.533 129.771 167.863C129.527 168.184 129.321 168.535 129.153 168.917L128.936 166.331L125.762 166.703L127.117 182.846ZM146.079 181.075C147.629 180.893 149.011 180.329 150.225 179.381C151.448 178.422 152.307 177.175 152.799 175.638L149.163 174.977C148.577 176.596 147.385 177.51 145.587 177.721C144.366 177.865 143.373 177.624 142.608 176.999C141.843 176.364 141.335 175.387 141.083 174.068L152.734 172.702C152.71 170.742 152.355 169.083 151.669 167.725C150.983 166.366 150.022 165.367 148.785 164.727C147.557 164.086 146.109 163.864 144.441 164.059C142.862 164.245 141.501 164.766 140.36 165.625C139.217 166.473 138.363 167.59 137.798 168.974C137.232 170.359 137.023 171.933 137.171 173.697C137.308 175.331 137.772 176.736 138.563 177.911C139.363 179.085 140.409 179.954 141.7 180.517C142.991 181.08 144.451 181.266 146.079 181.075ZM144.855 167.196C145.967 167.065 146.846 167.259 147.491 167.777C148.145 168.284 148.605 169.161 148.87 170.408L140.945 171.337C141.168 168.856 142.471 167.475 144.855 167.196Z" fill="black"/>
<path d="M43.064 28.5714C57.0003 17.1496 69.1353 10.0032 87.6683 5.84988C106.932 1.53279 123.722 2.07053 142.454 7.80428C155.436 11.7781 174.622 20.8217 183.121 37.3878C190.022 50.8376 192.796 63.1908 186.407 76.7436C183.846 82.1747 178.949 87.0107 172.025 89.1516C165.895 91.0468 159.254 87.2184 151.866 89.9562C146.637 91.8939 141.872 95.7489 139.889 97.7335C136.642 100.982 134.596 105.523 132.115 109.385C128.556 114.924 125.409 119.381 120.053 123.479C110.787 130.569 100.455 135.193 87.6683 135.815C74.882 136.437 55.6928 136.457 36.2567 119.468C20.0963 105.343 19.6511 84.7322 20.0963 74.5227C20.9373 55.2376 29.2315 39.9082 43.064 28.5714Z" fill="#F7E08E" stroke="black" stroke-width="5" stroke-linecap="round" stroke-linejoin="round"/>
<path d="M63.6697 108.191C62.3385 104.943 63.0065 101.574 65.5434 99.034C68.6957 95.8782 75.2957 95.4932 79.5494 96.4817C83.6259 97.4291 87.2679 98.9739 89.7154 102.207C91.8825 105.07 92.5385 107.382 91.552 110.847C91.0069 112.761 90.0795 115.816 88.0273 116.865C85.7177 118.046 82.7352 118.074 80.1802 117.952C73.4712 117.632 66.1797 114.316 63.6697 108.191Z" fill="#FF0000" stroke="black" stroke-width="5" stroke-linecap="round" stroke-linejoin="round"/>
<path d="M44.3986 90.0022C38.7855 86.8374 33.7159 80.4752 35.2912 73.4967C36.7352 67.0997 43.8219 60.4133 50.563 62.3355C52.6487 62.9303 53.5494 63.737 55.1365 65.3776C57.567 67.8899 58 72.4323 58 75.7578C58 82.4353 52.4716 94.554 44.3986 90.0022Z" fill="#1400FF" stroke="black" stroke-width="5" stroke-linecap="round" stroke-linejoin="round"/>
<path d="M58.38 48.2425C53.6624 44.5199 53.8238 36.4308 59.2385 33.4942C67.8936 28.8001 78.3475 24.4804 85.1905 32.3446C90.5146 38.4632 87.3399 42.9003 83.35 47.1804C79.7258 51.0682 74.6511 52.3732 68.6057 51.9111C64.3617 51.5867 61.2318 50.4929 58.38 48.2425Z" fill="#1B8700" stroke="black" stroke-width="5" stroke-linecap="round" stroke-linejoin="round"/>
<path d="M101.428 27.1046C98.6429 17.2393 110.066 13.8295 117.633 15.344C125.681 16.9547 133.861 28.3862 128.023 34.3962C120.723 41.9119 104.165 36.7971 101.428 27.1046Z" fill="#FAFF00" stroke="black" stroke-width="5" stroke-linecap="round" stroke-linejoin="round"/>
<path d="M127.391 63.6473C130.5 57.804 135.875 56.8349 142.829 55.6463C145.666 55.1614 149.495 54.8939 151.857 55.0398L151.937 55.0447C154.712 55.216 157.336 55.3779 159.658 57.5525C161.837 59.5932 162.46 62.8911 161.674 64.7437C160.003 68.68 156.028 70.688 152.435 72.9556C148.076 75.7071 143.222 77.1754 138.094 77.7406C135.536 78.0224 131.523 78.2926 129.262 77.2961C124.939 75.3902 125.574 67.0611 127.391 63.6473Z" fill="#262626"/>
</svg>
