<svg width="601" height="342" viewBox="0 0 601 342" fill="none" xmlns="http://www.w3.org/2000/svg">
<path fill-rule="evenodd" clip-rule="evenodd" d="M388.822 89.3572C347.513 136.792 295.47 211.055 266.717 256.279C259.212 268.083 252.284 277.419 245.834 283.708C242.64 286.822 238.697 290.057 234.038 292.196C229.208 294.413 222.037 296.095 214.352 293.077C206.89 290.146 202.83 284.291 200.758 279.984C198.683 275.671 197.669 271.074 197.107 267.109C195.973 259.106 196.115 249.335 196.893 238.993C199.938 198.527 214.275 131.8 230.927 67.2019C229.193 68.9261 227.367 70.7905 225.451 72.7982C215.148 83.5945 203.259 97.4334 190.447 113.334C139.043 177.129 75.7654 270.376 46.0584 321.591C40.7189 330.797 28.9949 333.891 19.8722 328.504C10.7494 323.116 7.68237 311.286 13.0218 302.08C43.7489 249.106 108.151 154.242 160.745 88.9675C173.933 72.6011 186.563 57.8629 197.878 46.006C208.86 34.4984 219.724 24.496 229.304 18.792C233.787 16.1232 240.599 12.7683 248.401 12.8844C252.761 12.9492 257.63 14.1133 262.103 17.207C266.52 20.2626 269.297 24.3326 270.963 28.1706C273.994 35.1501 274.034 42.873 273.51 49.0784C272.941 55.8299 271.412 63.6751 269.121 72.4895C253.22 133.69 239.95 194.791 235.853 233.296C265.417 187.026 317.662 112.555 360.067 63.8612C370.864 51.4623 381.312 40.3992 390.802 31.7964C399.699 23.7321 409.766 15.9266 419.67 12.6489C424.837 10.939 432.586 9.58678 440.571 13.0607C449.142 16.7896 453.573 24.0963 455.605 30.4936C457.532 36.5635 457.83 43.1865 457.504 49.4454C457.167 55.9289 456.079 63.3237 454.363 71.5638C441.482 133.405 433.009 175.496 431.81 205.188C430.635 234.284 436.673 245.035 446.285 251.533C454.321 256.964 470.711 256.828 494.772 242.574C517.332 229.209 540.062 206.885 554.842 183.242C560.481 174.221 572.3 171.52 581.241 177.211C590.181 182.901 592.857 194.827 587.218 203.849C569.301 232.511 542.189 259.274 514.152 275.883C487.616 291.604 452.657 302.331 424.98 283.623C398.88 265.979 392.179 237.897 393.563 203.616C394.923 169.931 404.305 124.099 416.902 63.6195C417.218 62.1027 417.499 60.6667 417.747 59.3086C417.303 59.7018 416.848 60.109 416.383 60.5305C408.456 67.7163 399.116 77.5357 388.822 89.3572Z" fill="black" stroke="black" stroke-width="20"/>
</svg>
