<svg width="86" height="97" viewBox="0 0 86 97" fill="none" xmlns="http://www.w3.org/2000/svg">
<path d="M20.8652 60.4251C23.5958 55.1807 30.5432 57.0031 34.4298 59.1165C29.5029 48.2894 23.2459 38.2549 18.2885 27.3609C17.4125 25.4358 15.8703 21.8303 16.0634 19.6844C16.2635 17.46 18.5423 17.741 20.3011 17.8504C22.3799 17.9797 24.4878 20.6377 25.6021 22.1203C27.3535 24.4502 29.4876 26.8917 30.7074 29.5723C32.3874 33.2641 34.7338 36.5626 36.4192 40.2664C36.559 40.5735 40.2994 47.8128 39.8509 46.8272C39.5711 46.2123 36.9701 40.7718 36.7678 40.155C36.3237 38.8015 35.2782 37.5206 34.9819 36.1273C34.7829 35.1914 35.4692 34.4088 35.5597 33.5268C35.7162 32.0028 40.6975 29.5568 48.3736 42.561C50.5433 41.5737 42.5336 30.7024 47.128 28.6117C49.7165 26.9878 55.1392 34.9604 56.1712 37.2283L55.8063 36.4263C55.2552 35.2153 55.1106 33.9687 54.5542 32.746C53.6973 30.8629 52.8326 28.2168 55.0027 27.2293C57.7813 25.9649 59.4226 26.7508 61.972 28.0955C64.3936 29.3727 66.6627 33.3463 67.7684 35.7761C69.9585 40.5891 71.7442 45.4853 73.5732 50.4418C75.5088 55.6871 76.2522 63.7275 74.3772 69.0833C73.203 72.4374 70.1743 73.5727 67.7651 75.9172C64.8207 78.7826 62.7483 81.0807 58.9683 82.8008C55.9595 84.17 51.6749 85.4284 48.3932 85.1575C46.6976 85.0175 45.4352 84.0393 44.2003 82.9098C42.5929 81.4397 39.9924 80.8949 38.5682 79.3574C36.9294 77.5882 34.0328 75.6316 31.8988 74.506C27.1634 72.0084 17.2018 67.461 20.8652 60.4251Z" fill="white" stroke="black" stroke-width="3" stroke-linecap="round" stroke-linejoin="round"/>
</svg>
