<svg width="354" height="200" viewBox="0 0 354 200" fill="none" xmlns="http://www.w3.org/2000/svg">
<path d="M4.03483 23.5155V4.93822C9.46096 4.93822 23.0263 7.38939 28.4524 7.38939C34.5982 7.38939 42.0511 7.4074 48.1222 6.74256C53.708 6.13084 59.5831 6.16381 65.531 6.16381C72.2191 6.16381 79.1591 4.93822 85.9921 4.93822C97.1105 4.93822 108.296 4.05777 119.566 4.35947C138.745 4.87287 157.74 6.16381 176.993 6.16381C227.824 6.16381 278.559 3.09984 329.377 3.09984C332.326 3.09984 337.608 2.11468 340.882 2.25086C343.39 1.79733 350.666 1.86637 350.666 3.23597C350.666 10.7658 349.332 21.9212 348.707 29.8949C348.083 37.8687 347.694 45.9342 348.707 51.6914C349.882 58.3602 347.55 67.3608 348.707 74.0194C350.519 84.4442 348.707 84.3948 348.707 94.7526C348.707 100.847 348.174 114.663 347.407 120.756C346.679 126.546 346.899 132.349 346.899 138.153C346.899 143.515 346.74 148.867 347.407 154.294C348.067 159.659 347.266 164.941 348.707 170.256C349.786 174.236 349.129 178.42 350.742 182.308C351.857 184.994 351.986 187.555 351.986 190.308C351.986 193.764 352.595 195.517 345.881 195.517C329.583 195.517 313.669 197.355 297.498 197.355C288.07 197.355 278.705 196.832 269.35 196.742C249.147 196.549 228.319 197.81 208.25 196.436C172.427 193.984 135.993 198.454 100.066 197.049C83.1927 196.389 66.1558 196.466 49.2526 196.096C39.1844 195.875 28.9159 197.049 18.8934 197.049C15.2991 197.049 4.91068 199.628 3.32812 196.292C2.18426 193.881 2 181.735 2 179.28L2.00003 156.952C2.00003 142.994 6.06963 139.25 6.06963 125.318C6.06963 118.718 5.05223 112.137 5.05223 105.47C5.05223 94.3032 4.27989 91.085 4.03483 79.8672C3.82885 70.4387 2.88339 63.3876 2.88339 53.2868C2.88339 46.9073 3.32812 35.7433 4.03483 23.5155Z" fill="#FF809E" stroke="black" stroke-width="3" stroke-linecap="round" stroke-linejoin="round"/>
</svg>
