<svg width="122" height="158" viewBox="0 0 122 158" fill="none" xmlns="http://www.w3.org/2000/svg">
<path d="M119.47 12.8452C119.857 10.0932 120 8.1912 120 5.42481H114.074C112.023 5.42481 109.174 5.09487 107.284 5.77363C105.009 6.59056 101.8 5.69046 99.3565 5.36138C95.4079 4.82964 91.1645 4.5686 87.1705 4.5686C83.8722 4.5686 80.3193 4.00841 77.0254 3.72826C73.4346 3.42285 69.7763 3.11198 66.2131 2.87206C62.4445 2.61831 58.6138 2 54.8316 2C53.0014 2 51.2894 2.0989 49.4942 2.26954C47.5709 2.45237 47.3894 2.23631 47.8654 3.87096C48.3097 5.39658 48.1629 7.46395 48.9251 8.84961C50.4606 11.6412 50.3625 14.9844 50.4165 17.9507C50.4638 20.5546 50.9293 23.0118 50.4949 25.6248C49.9911 28.6556 49.7411 31.6767 49.0821 34.6942C48.5393 37.1796 47.5733 39.7029 47.2571 42.2573C46.4642 48.664 46.5375 55.1489 45.4911 61.4901C44.8345 65.4689 44.2406 69.5083 43.7053 73.5087C43.1326 77.7896 40.4117 81.9739 38.2109 85.8443C36.8787 88.1871 35.2786 90.2884 33.4621 92.4085C31.1292 95.1313 28.2899 97.5911 25.8679 100.273C23.8323 102.527 21.7571 104.794 19.4904 106.901C15.4625 110.645 10.7564 114.069 6.34295 117.524C5.26807 118.365 3.66841 118.702 2.6538 119.522C1.77364 120.233 1.76497 120.316 2.73229 121.139C4.00945 122.225 4.7331 123.73 5.98974 124.786C7.01202 125.645 7.7599 126.532 8.81546 127.354C10.7991 128.9 13.6014 130.335 15.9975 131.429C21.3903 133.892 26.9374 136.078 31.8334 139.103C34.1566 140.539 36.8278 141.494 39.4275 142.544C42.5628 143.811 45.3579 145.669 48.6504 146.682C50.7752 147.336 53.1936 147.988 55.0083 149.14C58.4244 151.309 62.0789 152.618 66.3504 153.548C70.6625 154.486 75.2748 154.836 79.4979 155.974C80.3393 156.2 82.259 154.906 83.0693 154.562C88.7217 152.165 91.9049 148.982 95.5496 144.986C99.0938 141.099 102.903 137.505 105.165 132.935C109.994 123.181 111.552 112.685 112.249 102.271C112.471 98.9564 113.289 95.6453 113.289 92.3292C113.289 88.874 113.542 85.3605 113.819 81.9121C114.292 76.0182 114.352 70.2457 115.192 64.36C115.88 59.5478 116.169 54.6274 116.644 49.7887C117.49 41.1851 118.114 32.6143 119.117 24.0234C119.551 20.308 118.949 16.5512 119.47 12.8452Z" fill="#FCFF77" stroke="black" stroke-width="3" stroke-linecap="round" stroke-linejoin="round"/>
<path d="M80.1691 10.2616C70.4946 10.2616 60.6249 10.1122 51.1737 8.08691L50.0864 15.3358C58.2203 15.3358 65.8102 13.9848 73.8264 13.141C77.3666 12.7683 80.9307 11.5599 84.5185 11.3489C85.4859 11.292 84.8017 10.624 84.156 10.624C82.7938 10.624 81.5435 10.2616 80.1691 10.2616Z" fill="#C4C4C4" stroke="black" stroke-width="2" stroke-linecap="round" stroke-linejoin="round"/>
<path d="M47.7688 19.3824C51.7728 15.3784 51.7403 10.5921 50.7523 5.40538C50.7523 0.634408 45.5388 1.57432 42.9789 3.99197C39.1765 7.58309 39.0443 8.32302 39.4454 13.3362C39.6793 16.2601 44.9091 22.2421 47.7688 19.3824Z" fill="#C5C5C5" stroke="black" stroke-width="2" stroke-linecap="round" stroke-linejoin="round"/>
<path d="M82.6597 7.13332C84.4055 6.97913 86.5869 6.83495 88.2486 7.45678C88.2486 8.9342 89.3133 11.0904 88.908 12.5586C88.6285 13.5708 88.4643 13.9739 87.5126 14.5214C87.1014 14.758 86.6336 14.7017 86.1787 14.764C84.9327 14.9347 83.7098 14.9993 82.4527 14.9993C80.0267 14.9993 76.2526 15.5579 76.5 12C76.5464 11.3321 75.6862 10.09 76.1048 9.57397C76.6922 8.8497 77.5741 8.45647 78.4507 8.1184C79.7363 7.62264 81.2807 7.2551 82.6597 7.13332Z" fill="#FCFF77"/>
<path d="M75.0553 9.32091C75.3888 9.28485 75.6323 9.33543 75.7597 9.67778C75.823 9.84798 75.8559 10.0409 75.9068 10.2162C75.9737 10.4466 76.1092 10.6337 76.2214 10.8407C76.3308 11.0428 76.3647 11.2176 76.3106 11.434C76.2743 11.5793 76.2104 11.7314 76.2104 11.8816C76.2104 12.1696 76.2405 12.4759 76.176 12.7582C76.1098 13.0477 76.13 13.3396 76.0915 13.6347C76.0465 13.9798 75.8347 14.2355 75.5499 14.4063C75.4022 14.495 75.2256 14.5766 75.0663 14.6458C74.9822 14.6824 74.5507 14.8456 74.4918 14.7867" stroke="black" stroke-width="2" stroke-linecap="round" stroke-linejoin="round"/>
<path d="M85.8657 15.2996L86.1227 15.3684L86.5013 15.4699C86.6906 15.5206 86.8267 15.644 86.9094 15.8401C87.0036 16.0296 87.0601 16.2332 87.0791 16.4508C87.1071 16.6709 87.115 16.8759 87.1027 17.0659C87.0929 17.2469 87.0831 17.3554 87.0735 17.3914C87.0541 17.4636 87.0429 17.5234 87.0399 17.5709C87.0392 17.6093 87.0431 17.649 87.0515 17.6899C87.0598 17.7308 87.0694 17.7672 87.0802 17.7991C87.0729 17.8261 87.06 17.8565 87.0413 17.8901C87.0064 17.9484 86.9603 17.994 86.9032 18.027C86.8863 18.0901 86.8648 18.152 86.8389 18.2127C86.8154 18.2644 86.7766 18.283 86.7225 18.2685C86.6774 18.2564 86.6186 18.1875 86.546 18.0618C86.4758 17.927 86.4035 17.782 86.3292 17.6268C86.244 17.4397 86.1502 17.231 86.0477 17.0006C85.963 16.92 85.8435 16.8251 85.6891 16.7161C85.5437 16.6095 85.4016 16.5087 85.2629 16.4135C85.0905 16.2997 84.9123 16.1891 84.7285 16.0819C84.44 16.0046 84.137 15.9814 83.8195 16.0123C83.5111 16.0456 83.2119 16.1345 82.9219 16.279C82.641 16.426 82.3795 16.6265 82.1375 16.8805C81.9045 17.1369 81.7238 17.4509 81.5953 17.8223C81.547 18.0026 81.4903 18.142 81.4253 18.2405C81.3602 18.339 81.3108 18.4514 81.277 18.5776C81.2431 18.7038 81.2187 18.8132 81.2035 18.9058C81.1908 18.9893 81.1946 19.1015 81.2148 19.2422C81.2272 19.4484 81.263 19.6754 81.3222 19.9232C81.3815 20.1709 81.4623 20.41 81.5649 20.6404C81.6788 20.8642 81.8181 21.0658 81.9826 21.2451C82.1495 21.4155 82.3457 21.5308 82.5711 21.5912L83.1014 21.5594C83.2276 21.5932 83.3749 21.5844 83.5433 21.5329C83.7231 21.4748 83.8372 21.3556 83.8855 21.1753L83.958 20.9048C83.9689 20.7918 83.9754 20.6776 83.9773 20.5621C83.9817 20.4377 83.9725 20.3096 83.9498 20.1779C83.9115 20.0324 83.8552 19.882 83.7808 19.7268C83.7179 19.565 83.6552 19.4564 83.5927 19.401C83.4786 19.3221 83.4324 19.2421 83.4542 19.161C83.4638 19.1249 83.4891 19.1027 83.53 19.0943C83.5823 19.0794 83.6367 19.0746 83.6932 19.0801C83.7588 19.088 83.8321 19.1028 83.9132 19.1246L84.5082 19.284L85.1573 19.4579L85.4143 19.5268C85.4774 19.5437 85.5282 19.5525 85.5666 19.5531C85.6141 19.5562 85.6616 19.5592 85.7091 19.5623C85.759 19.5563 85.8213 19.5585 85.8958 19.5688C85.9727 19.5701 86.0743 19.5877 86.2005 19.6215C86.2588 19.6564 86.3114 19.6947 86.3582 19.7362C86.3985 19.7663 86.4318 19.8042 86.4582 19.85C86.4936 19.8981 86.5065 19.9402 86.4968 19.9763C86.4823 20.0304 86.4356 20.1145 86.3567 20.2286C86.2803 20.3337 86.215 20.379 86.1609 20.3645L86.0121 20.3247C85.8228 20.274 85.6457 20.3038 85.4808 20.4142C85.325 20.5271 85.2314 20.6421 85.2 20.7593L85.0985 21.1379L84.9898 21.5436C84.9584 21.6608 84.9162 21.7461 84.8632 21.7996C84.8103 21.853 84.7657 21.9474 84.7294 22.0826C84.7281 22.1596 84.7223 22.2353 84.712 22.3098C84.7041 22.3754 84.6848 22.4475 84.6541 22.5262C84.6347 22.5983 84.6031 22.6623 84.5591 22.7182C84.5422 22.7813 84.5052 22.8293 84.448 22.8623C84.4023 22.8887 84.3521 22.9139 84.2973 22.9379C84.2336 22.9595 84.1608 22.9786 84.079 22.9954L83.1331 22.9013L82.9168 22.8434C82.8807 22.8337 82.8245 22.809 82.7482 22.7692C82.6785 22.7409 82.6022 22.7011 82.5193 22.6499C82.443 22.6101 82.3577 22.5679 82.2633 22.5233C82.1756 22.4902 82.0912 22.4627 82.01 22.441L81.6449 22.3431C81.5998 22.3311 81.5391 22.3051 81.4628 22.2654C81.3865 22.2256 81.3171 22.178 81.2547 22.1226C81.1315 22.0413 81.0047 21.9735 80.8743 21.9193C80.744 21.865 80.6427 21.8282 80.5706 21.8089C80.5532 21.7656 80.5154 21.7265 80.4571 21.6915C80.4102 21.65 80.3544 21.606 80.2895 21.5596C80.2336 21.5157 80.179 21.4672 80.1255 21.4143C80.0811 21.3637 80.0538 21.3032 80.0437 21.2329C79.9788 21.1865 79.9083 21.071 79.8322 20.8863C79.7675 20.6951 79.7076 20.4858 79.6526 20.2585C79.5975 20.0311 79.556 19.8074 79.528 19.5874C79.5024 19.3583 79.5078 19.1761 79.544 19.0409L79.6056 18.811C79.6249 18.7389 79.6208 18.646 79.5933 18.5323C79.5772 18.412 79.5788 18.3158 79.5982 18.2437L79.7395 17.7163L79.8373 17.3512C79.9301 17.2215 80.0159 17.0995 80.0948 16.9854C80.1598 16.8869 80.2204 16.7871 80.2764 16.6862C80.3439 16.5787 80.3873 16.4888 80.4066 16.4167L80.5764 16.2158C80.6295 16.0175 80.7629 15.8261 80.9766 15.6418C81.1902 15.4575 81.4273 15.294 81.6878 15.1512C81.9573 15.0108 82.2216 14.9077 82.4808 14.8419C82.7515 14.7695 82.9679 14.755 83.1302 14.7985C83.2047 14.8088 83.2748 14.8179 83.3403 14.8258C83.3968 14.8313 83.4533 14.8368 83.5098 14.8422C83.5663 14.8477 83.6126 14.8553 83.6487 14.8649L83.7974 14.9048C83.9327 14.941 84.0285 14.9619 84.085 14.9674C84.153 14.9663 84.2164 14.9639 84.2753 14.9604C84.3367 14.9478 84.4046 14.9467 84.4791 14.957C84.5651 14.9607 84.6892 14.9843 84.8515 15.0278L85.3789 15.1691L85.8657 15.2996ZM90.2905 17.8476C90.3716 17.8693 90.4181 17.9301 90.4301 18.0299C90.442 18.1298 90.4382 18.2157 90.4189 18.2878C90.1045 18.8123 89.8213 19.2921 89.5695 19.727C89.4623 19.9109 89.355 20.0947 89.2478 20.2786C89.143 20.4534 89.0463 20.6159 88.9577 20.7661C88.8782 20.9187 88.8092 21.05 88.7507 21.16C88.7037 21.2633 88.6754 21.333 88.6657 21.3691C88.6488 21.4322 88.6075 21.5322 88.5418 21.6692C88.4851 21.8086 88.4489 21.9439 88.4331 22.0749C88.4287 22.1994 88.4656 22.2962 88.5437 22.3654C88.6332 22.4281 88.8157 22.4142 89.0911 22.3237C89.1212 22.2835 89.1955 22.2406 89.314 22.195C89.4325 22.1495 89.5649 22.0883 89.711 22.0115C89.8025 21.9587 89.8669 21.8987 89.9043 21.8314C89.944 21.7551 89.9819 21.7218 90.018 21.7314C90.0373 21.6593 90.087 21.6001 90.167 21.5539C90.247 21.5077 90.2943 21.4576 90.3088 21.4035C90.3437 21.3452 90.4247 21.2413 90.5517 21.0918C90.6788 20.9422 90.8245 20.759 90.9889 20.5422C91.1159 20.3926 91.2421 20.2283 91.3673 20.0493C91.4926 19.8703 91.6076 19.6934 91.7125 19.5186C91.8173 19.3437 91.9037 19.1833 91.9719 19.0373C92.0514 18.8847 92.1045 18.7588 92.131 18.6596C92.1576 18.5605 92.2007 18.4899 92.2602 18.4479C92.3198 18.4059 92.3848 18.3798 92.4551 18.3696C92.5345 18.3619 92.6102 18.3677 92.6824 18.3871C92.7569 18.3974 92.8212 18.4098 92.8753 18.4243L93.1863 18.5076C93.2945 18.5366 93.3657 18.6136 93.3998 18.7387C93.4429 18.8662 93.4464 18.9976 93.4101 19.1328C93.4029 19.1599 93.3664 19.2419 93.3007 19.3789C93.2465 19.5093 93.1771 19.6598 93.0928 19.8305C93.0174 20.0035 92.9318 20.1787 92.836 20.3559C92.7402 20.5332 92.6529 20.6788 92.574 20.793C92.276 21.1479 91.9824 21.5041 91.6934 21.8615C91.4068 22.2098 91.2128 22.5733 91.1113 22.952C91.0993 22.9971 91.104 23.0515 91.1256 23.1152C91.1364 23.1471 91.1484 23.1745 91.1616 23.1973C91.2788 23.2287 91.4056 23.2241 91.5421 23.1834C91.6877 23.1451 91.8164 23.0974 91.9283 23.0404C92.0492 22.9859 92.1554 22.9322 92.2468 22.8794C92.3383 22.8266 92.3975 22.8038 92.4246 22.8111C92.4516 22.8183 92.475 22.8391 92.4948 22.8734C92.5236 22.9101 92.548 22.9456 92.5678 22.9799C92.5942 23.0256 92.616 23.0701 92.6334 23.1134C92.6238 23.1495 92.5545 23.2276 92.4257 23.3477C92.3084 23.4611 92.1693 23.5833 92.0086 23.7142C91.8594 23.8385 91.7126 23.9537 91.5681 24.06C91.4327 24.1686 91.3479 24.2329 91.3136 24.2527C91.2065 24.2916 91.1097 24.3285 91.0231 24.3632C90.9479 24.3914 90.876 24.4253 90.8074 24.4649C90.7413 24.4955 90.667 24.5384 90.5845 24.5936C90.5135 24.6422 90.4287 24.7064 90.33 24.7863C90.1814 24.8721 90.0379 24.9206 89.8996 24.9318C89.7613 24.9431 89.6246 24.9306 89.4894 24.8944C89.4262 24.8775 89.3692 24.838 89.3181 24.776C89.2737 24.7255 89.2374 24.6626 89.2093 24.5874C89.1787 24.5212 89.1595 24.4485 89.1518 24.3691C89.1417 24.2988 89.1426 24.241 89.1547 24.196L89.2163 23.9661L89.2562 23.8173C89.3212 23.7188 89.3863 23.6203 89.4513 23.5218C89.5025 23.4388 89.5549 23.3514 89.6085 23.2595C89.6622 23.1676 89.6986 23.0856 89.718 23.0134C89.7325 22.9594 89.7379 22.9028 89.7344 22.8439C89.7423 22.7784 89.7102 22.736 89.6381 22.7167C89.584 22.7022 89.5112 22.7213 89.4197 22.7741C89.3307 22.8179 89.2381 22.8752 89.1418 22.946C89.0479 23.0078 88.9586 23.0709 88.8737 23.1351C88.7889 23.1993 88.7248 23.2401 88.6815 23.2575C88.6081 23.3151 88.4787 23.4012 88.2934 23.5159C88.1105 23.6215 87.9174 23.7291 87.714 23.8389C87.5131 23.9397 87.3203 24.0281 87.1356 24.1043C86.96 24.1828 86.8406 24.2136 86.7775 24.1967C86.7234 24.1822 86.6766 24.1407 86.637 24.0721C86.595 24.0125 86.5611 23.9406 86.5353 23.8564C86.5162 23.7837 86.5015 23.7121 86.4914 23.6418C86.4837 23.5624 86.4834 23.5092 86.4907 23.4821L86.5921 23.1035C86.6115 23.0314 86.6353 22.9605 86.6636 22.8908C86.6896 22.8301 86.711 22.7682 86.7279 22.7051C86.7538 22.6444 86.7728 22.5915 86.7849 22.5464C86.7994 22.4923 86.8277 22.4226 86.8699 22.3373C86.9235 22.2454 86.9673 22.1363 87.0011 22.0101C87.0325 21.8929 87.0786 21.7748 87.1395 21.6558C87.2094 21.5393 87.2618 21.4519 87.2967 21.3936L87.5426 20.9087C87.5775 20.8504 87.6516 20.7543 87.7648 20.6204C87.887 20.4889 87.9831 20.2924 88.0532 20.0309C88.087 19.9047 88.1144 19.8203 88.1355 19.7776C88.159 19.726 88.1122 19.6844 87.995 19.653C87.9409 19.6385 87.8799 19.6318 87.812 19.6329C87.753 19.6365 87.6692 19.643 87.5603 19.6525C87.4761 19.6782 87.3943 19.695 87.315 19.7027C87.2356 19.7104 87.1779 19.7094 87.1418 19.6998C87.0877 19.6853 87.0376 19.638 86.9914 19.558C86.9476 19.469 86.9402 19.3704 86.9692 19.2622C86.9982 19.154 87.047 19.0801 87.1156 19.0405C87.1866 18.9919 87.263 18.9592 87.3447 18.9425C87.438 18.9192 87.5255 18.8991 87.6072 18.8824C87.6914 18.8566 87.7555 18.8158 87.7995 18.76C87.9408 18.7012 88.1144 18.6125 88.3201 18.4937C88.5283 18.3658 88.7398 18.2438 88.9546 18.1274C89.1693 18.011 89.369 17.9147 89.5537 17.8386C89.7474 17.7649 89.9073 17.7449 90.0336 17.7788L90.2905 17.8476ZM95.7538 19.1521C95.9071 19.1931 96.0176 19.2855 96.0853 19.4293C96.1555 19.5641 96.1737 19.6946 96.1399 19.8208L95.9167 20.1668C95.9563 20.2354 95.9718 20.3217 95.9633 20.4257C95.9602 20.4732 95.9515 20.524 95.937 20.5781C95.8886 20.7584 95.8214 20.9191 95.7353 21.0603C95.6581 21.2039 95.5942 21.3703 95.5435 21.5597L95.5145 21.6679C95.5024 21.7129 95.4834 21.7658 95.4575 21.8265C95.434 21.8782 95.406 21.9286 95.3735 21.9779C95.3385 22.0362 95.3024 22.099 95.265 22.1663L95.2251 22.315C95.1986 22.4142 95.1588 22.4905 95.1058 22.5439C95.0619 22.5998 95.0086 22.6725 94.946 22.762C94.9086 22.8293 94.8565 22.8974 94.7897 22.9665C94.7343 23.029 94.6933 23.1098 94.6668 23.209C94.6571 23.245 94.6528 23.297 94.6539 23.365C94.6575 23.4239 94.6688 23.4897 94.688 23.5625C94.7095 23.6262 94.7368 23.6867 94.7698 23.7439C94.8143 23.7944 94.868 23.8281 94.9311 23.8451C95.0032 23.8644 95.0724 23.8587 95.1386 23.8282C95.2138 23.8 95.2766 23.7637 95.3272 23.7193C95.3843 23.6863 95.4391 23.6623 95.4914 23.6473C95.5551 23.6258 95.6186 23.6234 95.6817 23.6403L95.9386 23.7092C95.9927 23.7237 96.017 23.7592 96.0115 23.8157C96.0061 23.8722 95.9937 23.9365 95.9743 24.0086C95.9671 24.0357 95.912 24.0789 95.8091 24.1383C95.7063 24.1977 95.592 24.2637 95.4662 24.3363C95.3429 24.3999 95.2196 24.4634 95.0962 24.527C94.9753 24.5816 94.8932 24.6176 94.8499 24.6349C94.806 24.6908 94.7184 24.7833 94.5872 24.9124C94.4559 25.0415 94.3145 25.1727 94.1628 25.306C94.0136 25.4303 93.8601 25.5341 93.7025 25.6175C93.5515 25.7123 93.4309 25.7476 93.3408 25.7234C93.2777 25.7065 93.2116 25.6647 93.1425 25.5979C93.0801 25.5425 93.0269 25.4703 92.9832 25.3812C92.937 25.3012 92.901 25.2191 92.8752 25.1349C92.8585 25.0531 92.8598 24.9762 92.8791 24.904L92.9371 24.6877C92.9564 24.6155 92.9688 24.5512 92.9743 24.4947C92.9798 24.4382 92.9555 24.4027 92.9014 24.3882L92.9702 24.1313L93.1799 23.7816L93.3502 23.1461C93.3864 23.0108 93.4334 22.9075 93.4912 22.836C93.549 22.7645 93.5948 22.6657 93.6287 22.5395L93.6613 22.4178C93.6782 22.3546 93.7204 22.2693 93.7878 22.1618C93.8643 22.0567 93.9432 21.9425 94.0245 21.8194C94.1058 21.6962 94.1814 21.5764 94.2513 21.4598C94.3326 21.3367 94.3866 21.2255 94.4131 21.1263C94.4325 21.0542 94.4214 20.9691 94.3801 20.8711C94.3501 20.7664 94.2675 20.696 94.1323 20.6598C94.0782 20.6453 94.0238 20.65 93.9691 20.674C93.9233 20.7004 93.8058 20.6882 93.6165 20.6375C93.6009 20.6237 93.5889 20.5963 93.5805 20.5554C93.559 20.4916 93.5591 20.4192 93.5808 20.3381L93.6388 20.1217C93.6605 20.0406 93.7685 19.9439 93.9629 19.8317C94.1686 19.7129 94.3912 19.6034 94.6306 19.5033C94.8814 19.3966 95.1172 19.31 95.3379 19.2436C95.5611 19.1681 95.6997 19.1376 95.7538 19.1521ZM96.6495 15.9715C96.6856 15.9812 96.7318 15.9887 96.7884 15.9942C96.8563 15.9931 96.923 15.9965 96.9885 16.0044C97.0565 16.0033 97.1187 16.0054 97.1752 16.0109C97.2432 16.0098 97.2906 16.0129 97.3177 16.0201C97.4318 16.099 97.4924 16.1974 97.4995 16.3152C97.5066 16.4331 97.5305 16.5603 97.5712 16.6968C97.5519 16.7689 97.5371 16.8422 97.5267 16.9168C97.5254 16.9937 97.5163 17.0638 97.4994 17.1269C97.4849 17.181 97.4488 17.2437 97.391 17.3152C97.3356 17.3777 97.2922 17.4675 97.2608 17.5847C97.2259 17.643 97.1783 17.7124 97.1181 17.7928C97.0669 17.8758 97.0034 17.9505 96.9275 18.0172C96.8631 18.0772 96.7876 18.1246 96.701 18.1594C96.6258 18.1876 96.5456 18.1805 96.4602 18.1384C96.334 18.1045 96.2051 18.0265 96.0736 17.9043C95.9535 17.7755 95.8756 17.6338 95.8397 17.4793C95.7911 17.4083 95.7903 17.3211 95.8373 17.2178C95.8843 17.1144 95.9187 17.0222 95.9404 16.941C96.0056 16.6976 96.0993 16.5101 96.2216 16.3786C96.3438 16.2471 96.4864 16.1114 96.6495 15.9715ZM105.342 15.9961L105.721 16.0976C105.757 16.1072 105.785 16.1439 105.807 16.2077C105.829 16.2715 105.839 16.3418 105.837 16.4188C105.843 16.5072 105.842 16.5988 105.836 16.6938L105.735 17.0725C105.65 17.388 105.471 17.625 105.196 17.7834C104.922 17.9417 104.614 17.975 104.271 17.8833C104.258 17.8604 104.24 17.8363 104.218 17.811C104.173 17.7605 104.129 17.7292 104.084 17.7171C104.021 17.7002 103.955 17.6923 103.887 17.6934C103.819 17.6945 103.762 17.7083 103.717 17.7347C103.648 17.7743 103.558 17.8565 103.448 17.9815C103.346 18.1088 103.242 18.2452 103.135 18.3905C103.04 18.5293 102.95 18.6648 102.867 18.7969C102.785 18.9201 102.734 19.003 102.713 19.0456L102.555 19.3656C102.46 19.5044 102.365 19.6239 102.27 19.7242C102.185 19.8269 102.103 19.9353 102.024 20.0494C101.954 20.166 101.886 20.2928 101.82 20.4298C101.755 20.5668 101.695 20.7344 101.642 20.9328C101.589 20.9862 101.509 21.1049 101.402 21.2887C101.306 21.4659 101.207 21.6567 101.104 21.861C101.012 22.0587 100.928 22.2441 100.853 22.4171C100.78 22.5812 100.74 22.6767 100.733 22.7038L100.664 22.9607C100.652 23.0058 100.624 23.0755 100.579 23.1698C100.543 23.2666 100.502 23.3666 100.455 23.47C100.417 23.5757 100.376 23.6758 100.331 23.7701C100.298 23.8579 100.278 23.9153 100.271 23.9423C100.217 24.0342 100.175 24.1195 100.144 24.1983C100.122 24.2794 100.109 24.3482 100.103 24.4047C100.093 24.4793 100.091 24.5415 100.097 24.5914C100.089 24.6184 100.067 24.6656 100.03 24.7329C100.001 24.8026 99.9763 24.878 99.9546 24.9592C99.9328 25.0403 99.9225 25.1149 99.9236 25.1828C99.9272 25.2417 99.965 25.2808 100.037 25.3002C100.154 25.3316 100.282 25.3224 100.421 25.2727C100.569 25.2253 100.706 25.1654 100.832 25.0928C100.96 25.0112 101.071 24.9395 101.165 24.8777C101.268 24.8183 101.337 24.7934 101.373 24.8031C101.427 24.8175 101.47 24.8579 101.5 24.9241C101.54 24.9926 101.55 25.063 101.531 25.1351C101.414 25.2101 101.311 25.2888 101.221 25.371C101.134 25.4443 101.054 25.5244 100.983 25.6115C100.914 25.6896 100.866 25.7782 100.839 25.8774C100.776 25.9669 100.696 26.0516 100.597 26.1314C100.501 26.2022 100.393 26.2797 100.274 26.3637C100.155 26.4477 100.034 26.5363 99.9129 26.6293C99.8028 26.7157 99.7004 26.8091 99.6059 26.9094C99.5987 26.9364 99.5665 26.9665 99.5093 26.9995C99.4636 27.0259 99.4089 27.0498 99.3451 27.0714C99.2814 27.093 99.2143 27.1088 99.1439 27.119C99.0802 27.1405 99.0336 27.1522 99.0041 27.154C98.7557 27.2517 98.5497 27.3173 98.3861 27.3507C98.2226 27.3842 98.1541 27.3514 98.1806 27.2522C98.0784 27.2731 98.0189 27.2427 98.0022 27.1609C97.983 27.0881 97.9826 26.9817 98.0008 26.8416C98.0256 26.713 98.0642 26.5688 98.1167 26.4089C98.1716 26.24 98.2184 26.0835 98.2571 25.9392C98.3047 25.7974 98.3373 25.6757 98.3549 25.5741C98.3725 25.4725 98.3587 25.4157 98.3136 25.4036C98.2415 25.3843 98.1336 25.4085 97.9898 25.4763C97.8574 25.5374 97.71 25.6187 97.5476 25.7201C97.4471 25.7705 97.3247 25.8488 97.1803 25.9551C97.0359 26.0613 96.8869 26.1663 96.7335 26.2702C96.5915 26.3674 96.4531 26.4511 96.3184 26.5213C96.1926 26.5939 96.1027 26.6229 96.0486 26.6084C95.9585 26.5843 95.8756 26.5331 95.7999 26.4548C95.7218 26.3856 95.6564 26.3053 95.6036 26.2138C95.5598 26.1248 95.5275 26.0291 95.5065 25.9269C95.488 25.8157 95.4921 25.7105 95.5186 25.6113L95.5766 25.3949L95.7397 24.7864C95.7469 24.7593 95.7728 24.6987 95.8174 24.6043C95.8645 24.501 95.9184 24.3898 95.9793 24.2708C96.045 24.1338 96.1188 23.9845 96.2007 23.8229C96.2104 23.7868 96.2282 23.7385 96.2541 23.6778C96.2891 23.6195 96.3228 23.5657 96.3553 23.5165C96.3993 23.4606 96.4444 23.4002 96.4908 23.3354L96.5198 23.2272C96.562 23.1419 96.6042 23.0565 96.6464 22.9712C96.6837 22.9039 96.7166 22.8354 96.7449 22.7657C96.7732 22.696 96.791 22.6476 96.7983 22.6206C96.8886 22.4998 96.9585 22.3833 97.0079 22.2709C97.0664 22.161 97.1543 22.0493 97.2717 21.9358C97.3519 21.7447 97.4654 21.5915 97.6122 21.4762C97.768 21.3634 97.9383 21.2689 98.123 21.1928C98.3076 21.1167 98.4899 21.0495 98.6697 20.9914C98.861 20.9267 99.0366 20.8482 99.1967 20.7558C99.2507 20.7703 99.3015 20.7791 99.349 20.7821C99.444 20.7882 99.5327 20.7637 99.6152 20.7085C99.7847 20.7249 99.9169 20.7362 100.012 20.7423C100.116 20.7509 100.2 20.7444 100.264 20.7228C100.339 20.6946 100.394 20.6514 100.429 20.5931C100.473 20.5373 100.516 20.4474 100.559 20.3236L100.769 19.974L101.111 19.1817L101.361 18.6833C101.368 18.6562 101.394 18.5956 101.439 18.5012C101.483 18.4069 101.533 18.3092 101.59 18.2083C101.646 18.1074 101.699 18.0154 101.75 17.9325C101.804 17.8406 101.838 17.7868 101.852 17.7712C101.882 17.731 101.9 17.6973 101.908 17.6703C101.915 17.6433 101.926 17.6027 101.94 17.5486C101.95 17.5125 101.978 17.4621 102.024 17.3972C102.071 17.3323 102.124 17.2596 102.184 17.1791C102.244 17.0986 102.308 17.0239 102.375 16.9548C102.444 16.8767 102.506 16.8065 102.562 16.744C102.683 16.651 102.819 16.5423 102.968 16.418C103.117 16.2938 103.268 16.1797 103.422 16.0759C103.575 15.9721 103.728 15.8875 103.881 15.8221C104.036 15.7478 104.185 15.7152 104.328 15.7244L104.436 15.7533C104.571 15.7896 104.657 15.7933 104.694 15.7645C104.74 15.7381 104.789 15.7321 104.844 15.7466L105.342 15.9961ZM99.538 21.8618C99.3577 21.8135 99.1662 21.825 98.9635 21.8963C98.7608 21.9676 98.5689 22.0708 98.3878 22.2058C98.2157 22.3433 98.0649 22.4913 97.9354 22.6499C97.806 22.8085 97.7232 22.9554 97.6869 23.0906C97.6773 23.1267 97.6372 23.2222 97.5666 23.3772C97.5075 23.5257 97.4608 23.6822 97.4263 23.8469C97.4033 24.005 97.4178 24.149 97.47 24.2789C97.5221 24.4089 97.6591 24.4746 97.881 24.476C98.0643 24.4768 98.2568 24.4076 98.4584 24.2684C98.669 24.1316 98.861 23.9559 99.0344 23.7415C99.2168 23.5295 99.3701 23.3 99.4942 23.0531C99.6298 22.7995 99.7233 22.5589 99.7746 22.3311C99.794 22.2589 99.7974 22.1922 99.7848 22.1309C99.7788 22.081 99.7537 22.0307 99.7092 21.9802C99.6762 21.923 99.6192 21.8836 99.538 21.8618ZM105.409 21.8262C105.599 21.877 105.747 21.9553 105.854 22.0612C105.972 22.1606 106.056 22.2797 106.106 22.4187C106.156 22.5576 106.178 22.7085 106.173 22.8715C106.168 23.0344 106.138 23.2003 106.083 23.3692C106.018 23.6126 105.875 23.7868 105.653 23.8917C105.434 23.9876 105.216 24.0643 104.997 24.1218C104.795 24.1931 104.582 24.2472 104.359 24.2842C104.146 24.3237 103.939 24.3745 103.739 24.4368C103.548 24.5015 103.374 24.5903 103.218 24.7031C103.071 24.8184 102.963 24.9875 102.894 25.2105L102.742 25.7784C102.683 25.9269 102.673 26.0886 102.713 26.2636C102.756 26.4296 102.84 26.5295 102.966 26.5633C102.973 26.5747 103.012 26.5709 103.085 26.5517C103.158 26.5326 103.236 26.5101 103.321 26.4843C103.416 26.452 103.507 26.4184 103.594 26.3837C103.69 26.3513 103.759 26.3265 103.802 26.3091C103.955 26.2822 104.072 26.2604 104.153 26.2437C104.247 26.2203 104.309 26.2225 104.34 26.2502C104.403 26.2671 104.455 26.2906 104.495 26.3207C104.535 26.3508 104.54 26.4245 104.508 26.5417C104.437 26.7352 104.3 26.9061 104.096 27.0543C103.894 27.1936 103.681 27.3202 103.457 27.4341C103.236 27.5391 103.024 27.6272 102.821 27.6985C102.619 27.7698 102.483 27.8253 102.414 27.8649C102.225 27.959 102.061 27.9925 101.924 27.9653C101.795 27.9405 101.663 27.9099 101.528 27.8737C101.449 27.843 101.373 27.7839 101.3 27.6967C101.236 27.6118 101.178 27.5192 101.128 27.4187C101.089 27.3117 101.064 27.2082 101.052 27.1084C101.04 27.0086 101.047 26.9283 101.073 26.8676L101.134 26.6377C101.151 26.5746 101.151 26.5022 101.135 26.4204C101.126 26.3795 101.117 26.3431 101.106 26.3113L101.219 26.0517L101.277 25.8353C101.287 25.7992 101.321 25.707 101.38 25.5586C101.442 25.4011 101.51 25.2359 101.585 25.0628C101.663 24.8807 101.733 24.711 101.794 24.5535C101.867 24.3895 101.916 24.2816 101.939 24.2299C101.982 24.2126 102.008 24.1904 102.015 24.1633C102.022 24.1363 102.025 24.108 102.023 24.0785C102.021 24.0491 102.025 24.0163 102.035 23.9803C102.047 23.9352 102.078 23.8904 102.129 23.846C102.158 23.7378 102.211 23.6312 102.287 23.526C102.331 23.4702 102.375 23.4143 102.419 23.3585L102.728 22.9629C102.799 22.7694 102.948 22.5919 103.175 22.4305C103.404 22.26 103.654 22.1193 103.926 22.0084C104.206 21.9 104.481 21.8287 104.751 21.7948C105.024 21.7518 105.243 21.7623 105.409 21.8262ZM104.529 22.6774C104.484 22.6653 104.429 22.6893 104.365 22.7494C104.303 22.8004 104.239 22.8604 104.172 22.9295C104.1 23.0166 104.027 23.1082 103.953 23.2043C103.932 23.2469 103.904 23.2974 103.869 23.3557C103.837 23.405 103.809 23.4554 103.785 23.5071C103.764 23.5498 103.758 23.5915 103.766 23.6324C103.777 23.6643 103.809 23.6875 103.863 23.702C103.906 23.7231 103.976 23.7322 104.073 23.7293C104.171 23.7264 104.272 23.71 104.376 23.6801C104.49 23.6525 104.593 23.6124 104.684 23.5596C104.787 23.5002 104.855 23.4266 104.888 23.3389L104.95 23.109C104.962 23.0639 104.959 23.0197 104.942 22.9764C104.924 22.9331 104.9 22.8976 104.869 22.8699C104.84 22.8332 104.801 22.7986 104.752 22.7661L104.529 22.6774Z" fill="black"/>
<path d="M100.325 55.6035C100.001 54.0922 99.1868 50.2618 97.8697 49.2374C95.9385 47.7353 92.9668 48.5512 91.0125 49.5284C88.6642 50.7025 86.4833 52.3623 84.1371 53.4572C81.951 54.4774 80.4803 51.9236 78.8987 51.0199C76.5516 49.6787 74.4974 47.9554 72.478 46.2726C71.3132 45.3019 69.5304 45.9421 68.3128 46.3635C67.4615 46.6582 65.6703 48.8647 65.1297 48.5644C63.9923 47.9325 61.2892 46.6129 60.7098 45.4541" stroke="black" stroke-width="2" stroke-linecap="round" stroke-linejoin="round"/>
<path d="M59.4003 57.2403C61.3416 55.3442 63.3161 53.2985 65.6937 55.6761C67.8101 57.7925 68.5065 60.078 69.8953 62.6242C71.7104 65.9519 77.7505 61.7671 80.0265 61.2419C84.9137 60.1141 86.814 63.6636 89.994 66.3893C91.0137 67.2634 94.4869 65.3157 95.0869 64.1157" stroke="black" stroke-width="2" stroke-linecap="round" stroke-linejoin="round"/>
<path d="M96.3965 80.1582C94.505 78.2076 93.8323 76.2899 90.9762 75.6473C88.5253 75.0959 86.4587 75.0889 84.4646 76.7205C83.1379 77.8059 82.0131 79.7944 80.0265 79.7944C77.5795 79.7944 75.6619 77.9674 73.4785 77.2116C70.3357 76.1237 67.1459 75.8694 64.475 73.792C63.6468 73.1479 62.4545 72.814 61.5466 72.3187C60.5129 71.7549 59.9425 71.3184 58.7455 71.3184" stroke="black" stroke-width="2" stroke-linecap="round" stroke-linejoin="round"/>
<path d="M91.8135 91.1672C89.1861 90.6545 87.5871 88.6111 85.0108 87.875C81.8983 86.9857 76.4994 85.9106 73.2972 87.2384C71.8085 87.8557 71.273 89.3518 70.0232 90.185C68.3175 91.3221 66.6488 91.3046 64.7121 90.8398C59.9326 89.6927 60.5209 83.0985 56.1269 82" stroke="black" stroke-width="2" stroke-linecap="round" stroke-linejoin="round"/>
<path d="M90 105.126C88.6801 102.961 87.5777 101.632 85.2817 100.396C83.1381 99.2413 80.6214 99.8361 78.3177 100.181C76.2951 100.483 74.2835 100.842 72.2616 101.148C71.2293 101.305 69.7753 101.716 68.7856 101.351C67.3672 100.829 65.9045 100.701 64.4973 100.049C63.0953 99.3995 61.8911 98.6706 60.6868 97.7199C59.0704 96.4438 57.773 94.9066 56.8883 93.0852C56.7462 92.7928 55.5304 89.676 54.9532 90.3976C54.6009 90.8379 53.2612 90.7856 52.8509 90.4573C52.2359 89.9653 51.3354 89.455 50.653 89" stroke="black" stroke-width="2" stroke-linecap="round" stroke-linejoin="round"/>
<path d="M38.0712 115.927C38.2065 115.963 38.2972 116.022 38.3434 116.102C38.401 116.175 38.4358 116.262 38.4477 116.361C38.4596 116.461 38.4523 116.561 38.4257 116.66C38.4105 116.753 38.3945 116.83 38.3776 116.893L38.3088 117.15C38.1991 117.343 38.0537 117.507 37.8726 117.642C37.7005 117.78 37.5107 117.821 37.3034 117.765C37.1682 117.729 37.0348 117.65 36.9033 117.527C36.7742 117.396 36.615 117.305 36.4256 117.255C36.2273 117.201 36.0141 117.222 35.7862 117.315C35.5606 117.4 35.3458 117.516 35.1419 117.664C34.9379 117.813 34.7597 117.973 34.6074 118.144C34.4665 118.309 34.3816 118.446 34.3526 118.554L34.2511 118.933L34.1134 119.447C34.0845 119.555 34.053 119.745 34.019 120.016C33.985 120.287 33.9711 120.573 33.9774 120.874C33.986 121.166 34.0245 121.438 34.0927 121.688C34.1724 121.931 34.3114 122.08 34.5097 122.133L34.8092 122.097C35.0165 122.153 35.2164 122.182 35.4088 122.185C35.6036 122.18 35.7982 122.121 35.9925 122.008C36.2536 121.827 36.4925 121.693 36.709 121.606C36.7752 121.576 36.8467 121.561 36.9237 121.562C37.0006 121.564 37.0662 121.571 37.1203 121.586C37.1335 121.609 37.1488 121.642 37.1661 121.685C37.2009 121.772 37.211 121.842 37.1965 121.896C37.1434 122.095 37.0097 122.305 36.7954 122.528C36.5835 122.742 36.3425 122.938 36.0723 123.117C35.8136 123.289 35.5543 123.427 35.2945 123.532C35.0436 123.638 34.8506 123.674 34.7154 123.637L34.6072 123.608C34.4737 123.602 34.3493 123.597 34.2338 123.595C34.1298 123.587 34.0303 123.579 33.9354 123.573C33.8404 123.567 33.7749 123.559 33.7388 123.55C33.6667 123.53 33.5714 123.471 33.4531 123.372C33.3438 123.275 33.2291 123.162 33.109 123.033C32.9865 122.913 32.8788 122.793 32.7857 122.671C32.6951 122.54 32.6459 122.436 32.6382 122.356C32.6094 122.319 32.5827 122.221 32.5583 122.059C32.5453 121.892 32.5314 121.709 32.5166 121.512C32.5132 121.308 32.5131 121.11 32.5164 120.918C32.5286 120.728 32.5468 120.588 32.571 120.497L32.6833 120.078C32.6708 120.017 32.657 119.96 32.642 119.908C32.6211 119.805 32.6191 119.723 32.636 119.66C32.683 119.556 32.7333 119.459 32.787 119.367C32.8267 119.29 32.8677 119.21 32.9099 119.124C32.9521 119.039 32.9804 118.969 32.9949 118.915L33.0746 118.618C33.0819 118.591 33.0813 118.557 33.073 118.516C33.067 118.466 33.0611 118.416 33.0551 118.366C33.0401 118.314 33.0309 118.258 33.0273 118.199L33.2884 117.82L33.3573 117.563C33.4705 117.429 33.5755 117.307 33.6724 117.198C33.7555 117.104 33.8374 117.015 33.9181 116.931C34.0077 116.848 34.0812 116.791 34.1383 116.758C34.2113 116.594 34.3199 116.458 34.4644 116.352C34.6088 116.246 34.7688 116.154 34.9445 116.075C35.1291 115.999 35.3204 115.934 35.5182 115.881C35.7161 115.828 35.914 115.774 36.1118 115.721C36.2158 115.73 36.321 115.734 36.4275 115.733C36.5044 115.734 36.5814 115.736 36.6583 115.737C36.7443 115.741 36.8008 115.746 36.8278 115.754L37.0983 115.826L37.6122 115.964L38.0712 115.927ZM45.3239 113.508C45.5854 113.578 45.7259 113.703 45.7455 113.882C45.7742 114.063 45.7607 114.258 45.7052 114.465L45.6363 114.722C45.6025 114.848 45.5257 114.973 45.4059 115.095C45.2861 115.218 45.1507 115.326 44.9997 115.421C44.8511 115.507 44.6971 115.577 44.5377 115.631C44.3898 115.678 44.2707 115.69 44.1806 115.666C44.0634 115.634 43.969 115.59 43.8975 115.532C43.8261 115.474 43.7543 115.435 43.6821 115.416C43.4928 115.365 43.2788 115.371 43.04 115.432C42.8103 115.496 42.6333 115.652 42.5092 115.899C42.4008 116.015 42.3322 116.127 42.3032 116.235C42.2856 116.337 42.2443 116.437 42.1793 116.535C42.0474 116.703 41.8953 116.928 41.723 117.21C41.5622 117.486 41.4467 117.754 41.3767 118.016C41.3694 118.043 41.3483 118.086 41.3134 118.144C41.2875 118.205 41.2558 118.269 41.2185 118.336C41.1787 118.412 41.1377 118.493 41.0955 118.578L40.9832 118.998L40.5004 120.042C40.4846 120.173 40.4402 120.321 40.3673 120.485C40.3058 120.642 40.2235 120.823 40.1205 121.027C40.0174 121.232 39.9095 121.454 39.7968 121.694C39.6841 121.935 39.5813 122.192 39.4884 122.467C39.4739 122.521 39.4587 122.614 39.4429 122.745C39.4386 122.869 39.468 122.94 39.5311 122.957C39.6122 122.978 39.7051 122.974 39.8097 122.944C39.9234 122.917 40.0362 122.875 40.1481 122.818C40.26 122.761 40.3731 122.699 40.4874 122.633C40.6107 122.57 40.7226 122.513 40.8231 122.462C41.0402 122.337 41.2571 122.231 41.4736 122.144C41.6926 122.048 41.8877 122.023 42.059 122.069L42.1112 122.199C42.0846 122.298 42.0261 122.408 41.9358 122.528C41.8479 122.64 41.7453 122.753 41.6279 122.866C41.5105 122.98 41.3866 123.082 41.256 123.172C41.1254 123.263 41.0066 123.328 40.8995 123.367C40.6854 123.445 40.4956 123.558 40.3301 123.707C40.1736 123.858 39.9753 124.003 39.7353 124.142C39.6359 124.26 39.5065 124.346 39.3472 124.4C39.1992 124.448 39.0525 124.49 38.9069 124.529C38.7572 124.546 38.5723 124.569 38.3522 124.597C38.1387 124.637 37.9644 124.638 37.8292 124.602C37.73 124.576 37.6627 124.538 37.6273 124.49C37.5985 124.453 37.588 124.402 37.5959 124.337C37.6038 124.271 37.6255 124.19 37.6611 124.093C37.7057 123.999 37.7474 123.88 37.786 123.735L38.0179 122.87C38.0517 122.744 38.1081 122.624 38.187 122.509C38.2749 122.398 38.3345 122.283 38.366 122.166L38.4384 121.896C38.4191 121.968 38.4366 121.939 38.4908 121.808C38.5475 121.669 38.6256 121.468 38.7251 121.204C38.8271 120.932 38.9378 120.609 39.0573 120.235C39.1767 119.861 39.292 119.467 39.4032 119.052C39.4177 118.998 39.4607 118.928 39.5324 118.841C39.6155 118.747 39.6655 118.669 39.6824 118.606L39.8128 118.119C39.937 117.872 40.0464 117.626 40.1411 117.38C40.2357 117.135 40.3292 116.895 40.4215 116.658C40.5137 116.422 40.615 116.189 40.7253 115.957C40.838 115.717 40.9778 115.484 41.1446 115.258C41.282 115.034 41.462 114.831 41.6846 114.649C41.9073 114.467 42.1168 114.262 42.313 114.035C42.4075 113.934 42.5041 113.844 42.6028 113.764C42.7105 113.687 42.8315 113.632 42.9656 113.601C43.1473 113.427 43.3621 113.311 43.6099 113.252C43.8691 113.186 44.1024 113.181 44.3097 113.236L45.3239 113.508ZM44.8637 119.11C45.0169 119.151 45.1275 119.243 45.1952 119.387C45.2654 119.522 45.2836 119.652 45.2498 119.778L45.0266 120.124C45.0662 120.193 45.0817 120.279 45.0732 120.383C45.0701 120.431 45.0613 120.482 45.0468 120.536C44.9985 120.716 44.9313 120.877 44.8452 121.018C44.768 121.162 44.7041 121.328 44.6534 121.517L44.6244 121.626C44.6123 121.671 44.5933 121.723 44.5674 121.784C44.5439 121.836 44.5159 121.886 44.4833 121.936C44.4484 121.994 44.4122 122.057 44.3749 122.124L44.335 122.273C44.3085 122.372 44.2687 122.448 44.2157 122.502C44.1718 122.557 44.1185 122.63 44.0558 122.72C44.0185 122.787 43.9664 122.855 43.8996 122.924C43.8442 122.987 43.8032 123.067 43.7766 123.167C43.767 123.203 43.7627 123.255 43.7638 123.323C43.7674 123.382 43.7787 123.447 43.7979 123.52C43.8194 123.584 43.8467 123.644 43.8797 123.701C43.9241 123.752 43.9779 123.786 44.041 123.803C44.1131 123.822 44.1823 123.816 44.2485 123.786C44.3236 123.758 44.3865 123.721 44.4371 123.677C44.4942 123.644 44.549 123.62 44.6013 123.605C44.665 123.583 44.7285 123.581 44.7916 123.598L45.0485 123.667C45.1026 123.681 45.1269 123.717 45.1214 123.773C45.1159 123.83 45.1035 123.894 45.0842 123.966C45.077 123.993 45.0219 124.037 44.919 124.096C44.8162 124.155 44.7018 124.221 44.5761 124.294C44.4528 124.358 44.3295 124.421 44.2061 124.485C44.0852 124.539 44.0031 124.575 43.9598 124.593C43.9158 124.648 43.8283 124.741 43.697 124.87C43.5658 124.999 43.4244 125.13 43.2727 125.264C43.1235 125.388 42.97 125.492 42.8124 125.575C42.6614 125.67 42.5408 125.705 42.4507 125.681C42.3876 125.664 42.3215 125.622 42.2524 125.555C42.1899 125.5 42.1368 125.428 42.093 125.339C42.0468 125.259 42.0109 125.177 41.9851 125.093C41.9684 125.011 41.9697 124.934 41.989 124.862L42.047 124.645C42.0663 124.573 42.0787 124.509 42.0842 124.452C42.0897 124.396 42.0654 124.36 42.0113 124.346L42.0801 124.089L42.2898 123.739L42.4601 123.104C42.4963 122.968 42.5433 122.865 42.6011 122.794C42.6589 122.722 42.7047 122.623 42.7385 122.497L42.7712 122.375C42.7881 122.312 42.8303 122.227 42.8977 122.119C42.9742 122.014 43.0531 121.9 43.1344 121.777C43.2157 121.654 43.2913 121.534 43.3612 121.417C43.4425 121.294 43.4964 121.183 43.523 121.084C43.5423 121.012 43.5313 120.927 43.49 120.829C43.46 120.724 43.3774 120.654 43.2422 120.617C43.1881 120.603 43.1337 120.608 43.079 120.632C43.0332 120.658 42.9157 120.646 42.7264 120.595C42.7108 120.581 42.6988 120.554 42.6904 120.513C42.6688 120.449 42.6689 120.377 42.6907 120.296L42.7487 120.079C42.7704 119.998 42.8784 119.902 43.0728 119.789C43.2785 119.671 43.5011 119.561 43.7405 119.461C43.9913 119.354 44.2271 119.268 44.4478 119.201C44.671 119.126 44.8096 119.095 44.8637 119.11ZM45.7594 115.929C45.7954 115.939 45.8417 115.946 45.8982 115.952C45.9662 115.951 46.0329 115.954 46.0984 115.962C46.1664 115.961 46.2286 115.963 46.2851 115.969C46.353 115.967 46.4005 115.971 46.4276 115.978C46.5417 116.057 46.6023 116.155 46.6094 116.273C46.6165 116.391 46.6404 116.518 46.6811 116.654C46.6618 116.727 46.6469 116.8 46.6366 116.874C46.6353 116.951 46.6262 117.021 46.6093 117.085C46.5948 117.139 46.5587 117.201 46.5009 117.273C46.4455 117.335 46.4021 117.425 46.3707 117.542C46.3358 117.601 46.2882 117.67 46.228 117.75C46.1768 117.833 46.1132 117.908 46.0374 117.975C45.973 118.035 45.8975 118.082 45.8109 118.117C45.7357 118.145 45.6554 118.138 45.5701 118.096C45.4439 118.062 45.315 117.984 45.1835 117.862C45.0634 117.733 44.9854 117.591 44.9495 117.437C44.9009 117.366 44.9001 117.279 44.9472 117.175C44.9942 117.072 45.0286 116.98 45.0503 116.899C45.1155 116.655 45.2092 116.468 45.3314 116.336C45.4536 116.205 45.5963 116.069 45.7594 115.929ZM48.9753 120.327C49.0876 120.377 49.2066 120.438 49.3322 120.51C49.4667 120.585 49.5785 120.673 49.6673 120.774C49.7586 120.866 49.8201 120.979 49.8518 121.113C49.8859 121.238 49.8698 121.388 49.8034 121.564C49.7769 121.663 49.729 121.752 49.6597 121.83C49.5995 121.91 49.527 121.983 49.4421 122.047C49.3687 122.104 49.2899 122.146 49.2057 122.172C49.1215 122.198 49.0524 122.203 48.9983 122.189C48.9286 122.16 48.8667 122.139 48.8126 122.124C48.7699 122.103 48.7351 122.089 48.708 122.082L48.6269 122.06L48.5187 122.031C48.3654 121.99 48.1929 121.949 48.0012 121.907C47.8095 121.865 47.6703 121.862 47.5837 121.897C47.5115 121.877 47.4604 121.888 47.4303 121.928C47.4092 121.971 47.3902 122.024 47.3733 122.087L47.1043 122.333C47.0573 122.437 47.0115 122.536 46.9668 122.63C46.9271 122.706 46.8873 122.783 46.8475 122.859C46.8078 122.935 46.7797 122.986 46.7635 123.01L46.7055 123.227L46.4959 123.576C46.4682 123.608 46.436 123.638 46.3993 123.666C46.3716 123.698 46.3439 123.729 46.3162 123.76C46.2909 123.782 46.2701 123.806 46.2539 123.83C46.2321 123.912 46.2155 124.028 46.2039 124.179C46.1947 124.322 46.1945 124.467 46.2033 124.614C46.2146 124.752 46.234 124.878 46.2615 124.992C46.298 125.108 46.3512 125.18 46.4209 125.209C46.5561 125.245 46.7103 125.228 46.8836 125.159C47.0568 125.089 47.2279 125.009 47.397 124.919C47.5775 124.823 47.7441 124.742 47.8969 124.676C48.0611 124.604 48.1961 124.588 48.3019 124.626C48.4323 124.68 48.4992 124.736 48.5028 124.795C48.5087 124.845 48.4954 124.895 48.4629 124.944C48.4201 125.068 48.3273 125.198 48.1847 125.333C48.051 125.471 47.8949 125.604 47.7162 125.73C47.5489 125.849 47.375 125.957 47.1945 126.054C47.0255 126.144 46.8886 126.204 46.784 126.233C46.4357 126.343 46.1275 126.43 45.8593 126.493C45.5911 126.556 45.3151 126.54 45.0315 126.445C44.9077 126.402 44.8221 126.307 44.7748 126.159C44.7251 126.02 44.6982 125.868 44.6942 125.702C44.6926 125.528 44.6988 125.361 44.7128 125.2C44.7359 125.042 44.757 124.927 44.7764 124.855L44.8496 124.744C44.8592 124.708 44.8704 124.648 44.8831 124.565C44.8983 124.472 44.9134 124.379 44.9286 124.287C44.9551 124.188 44.976 124.092 44.9911 123.999C45.0153 123.909 45.0379 123.843 45.059 123.8C45.1339 123.521 45.2234 123.313 45.3276 123.176C45.4342 123.031 45.5116 122.868 45.5599 122.688L45.7993 122.39L45.8826 122.079C45.8989 122.054 45.9395 121.992 46.0046 121.894C46.0721 121.786 46.1464 121.671 46.2277 121.548C46.3205 121.418 46.4087 121.287 46.4925 121.155C46.5762 121.023 46.6424 120.92 46.6912 120.846C46.7057 120.792 46.7554 120.733 46.8402 120.668C46.9251 120.604 47.0177 120.547 47.1182 120.496C47.2301 120.439 47.3384 120.396 47.443 120.366C47.5567 120.339 47.6496 120.334 47.7217 120.354C47.7806 120.35 47.8158 120.345 47.8272 120.339C47.8387 120.332 47.8456 120.324 47.848 120.315C47.8504 120.306 47.8573 120.298 47.8688 120.292C47.8826 120.276 47.919 120.267 47.9779 120.263C48.118 120.281 48.2265 120.291 48.3034 120.292C48.3828 120.285 48.4565 120.28 48.5244 120.279C48.5948 120.269 48.6582 120.267 48.7147 120.272C48.7826 120.271 48.8695 120.289 48.9753 120.327ZM55.7006 116.013C55.8334 116.058 55.9568 116.12 56.071 116.199C56.1941 116.281 56.2944 116.375 56.3718 116.483C56.4517 116.581 56.4984 116.695 56.5121 116.825C56.5282 116.945 56.4989 117.072 56.4242 117.207C56.4049 117.279 56.3871 117.327 56.3708 117.352C56.366 117.37 56.3461 117.408 56.3111 117.467C56.3039 117.494 56.2759 117.544 56.2271 117.618C56.1783 117.692 56.1193 117.768 56.0501 117.846C55.9923 117.917 55.9312 117.983 55.8668 118.043C55.8048 118.094 55.7603 118.116 55.7332 118.109C55.5281 118.189 55.3167 118.239 55.0991 118.258C54.8904 118.279 54.6851 118.306 54.483 118.339C54.29 118.374 54.1102 118.432 53.9435 118.513C53.7769 118.594 53.642 118.737 53.539 118.941L53.362 119.169C53.1242 119.444 52.9167 119.731 52.7396 120.032C52.5649 120.323 52.4016 120.608 52.2498 120.886L52.1773 121.156C52.0569 121.317 51.9503 121.463 51.8575 121.592C51.7762 121.716 51.7199 121.836 51.6885 121.953C51.6698 121.987 51.652 122.035 51.6351 122.098C51.6296 122.155 51.6286 122.212 51.6322 122.271C51.6447 122.333 51.6585 122.389 51.6734 122.442C51.6998 122.487 51.7311 122.515 51.7671 122.525C51.8188 122.548 51.903 122.523 52.0197 122.448C52.1455 122.375 52.2827 122.296 52.4313 122.21C52.5913 122.118 52.7567 122.041 52.9275 121.981C53.1074 121.923 53.2817 121.921 53.4506 121.976C53.5654 122.016 53.6624 122.105 53.7416 122.242C53.8208 122.379 53.8783 122.525 53.9142 122.68C53.9615 122.828 53.992 122.966 54.0057 123.096C54.0193 123.225 54.0226 123.303 54.0153 123.33C53.9701 123.463 53.8851 123.6 53.7605 123.74C53.6383 123.872 53.5071 124.001 53.3669 124.127C53.2356 124.257 53.1101 124.382 52.9903 124.505C52.882 124.621 52.8112 124.723 52.778 124.81C52.7491 124.919 52.7272 125.072 52.7126 125.271C52.7093 125.463 52.7241 125.661 52.7569 125.863C52.7898 126.065 52.8467 126.249 52.9276 126.416C53.0176 126.585 53.1437 126.691 53.306 126.735C53.3577 126.758 53.4064 126.757 53.4521 126.73C53.5093 126.697 53.5631 126.659 53.6137 126.614C53.6666 126.561 53.7208 126.503 53.7762 126.44C53.8316 126.378 53.8879 126.33 53.945 126.297C54.0587 126.27 54.1616 126.21 54.2537 126.119C54.3458 126.028 54.4414 125.995 54.5406 126.022L54.6623 126.054C54.6959 126.073 54.7112 126.106 54.7081 126.154C54.7141 126.204 54.7098 126.256 54.6953 126.31C54.6808 126.364 54.6618 126.417 54.6383 126.468C54.6172 126.511 54.6043 126.541 54.5994 126.559C54.5874 126.604 54.5316 126.686 54.4323 126.804C54.333 126.923 54.2108 127.054 54.0657 127.199C53.9296 127.346 53.7777 127.499 53.6097 127.657C53.4442 127.805 53.2823 127.941 53.1241 128.063C52.9748 128.187 52.8418 128.287 52.7251 128.362C52.6084 128.437 52.5287 128.464 52.486 128.443C52.2877 128.389 52.1366 128.286 52.0328 128.133C51.9289 127.979 51.8492 127.808 51.7935 127.619C51.7378 127.43 51.6981 127.236 51.6743 127.037C51.6595 126.839 51.6431 126.666 51.6253 126.516C51.6224 126.419 51.6144 126.286 51.6014 126.118C51.5908 125.942 51.5642 125.77 51.5218 125.604C51.4817 125.429 51.4188 125.267 51.333 125.119C51.2562 124.973 51.1424 124.875 50.9915 124.824C50.9284 124.808 50.8659 124.825 50.8039 124.876C50.7419 124.927 50.6865 124.989 50.6377 125.063C50.5889 125.137 50.5447 125.212 50.5049 125.288C50.4741 125.367 50.4506 125.419 50.4344 125.443L50.3257 125.849C50.2424 126.088 50.2563 126.27 50.3674 126.396C50.4785 126.523 50.6124 126.636 50.7692 126.736C50.9104 126.822 51.0263 126.931 51.1169 127.061C51.219 127.185 51.2284 127.366 51.1451 127.605C51.1282 127.668 51.0912 127.716 51.034 127.749C50.9835 127.794 50.9275 127.822 50.8662 127.835C50.8024 127.856 50.7378 127.863 50.6723 127.855C50.6133 127.859 50.5704 127.857 50.5433 127.85C50.476 127.812 50.3718 127.75 50.2306 127.664C50.0984 127.581 50.0077 127.522 49.9585 127.49L49.5798 127.388C49.4446 127.352 49.3289 127.297 49.2328 127.223C49.186 127.181 49.1391 127.14 49.0923 127.098C49.0382 127.084 48.9678 127.094 48.8812 127.129C48.806 127.157 48.7414 127.164 48.6873 127.149C48.6176 127.121 48.5332 127.093 48.434 127.067C48.3348 127.04 48.2381 127.005 48.1437 126.96C48.0584 126.918 47.989 126.87 47.9356 126.817C47.8845 126.755 47.8768 126.676 47.9124 126.579C47.9535 126.426 48.0357 126.318 48.159 126.254C48.2938 126.184 48.4387 126.112 48.5939 126.037C48.7606 125.956 48.9209 125.845 49.075 125.702C49.2315 125.551 49.3553 125.323 49.4465 125.019C49.5007 124.889 49.5342 124.782 49.547 124.698C49.5687 124.617 49.6067 124.511 49.661 124.381C49.6803 124.309 49.7017 124.247 49.7252 124.195C49.7602 124.137 49.8221 124.086 49.9112 124.042L50.3322 122.633C50.3829 122.444 50.4225 122.314 50.4508 122.245C50.4906 122.168 50.5189 122.099 50.5358 122.035C50.6237 121.924 50.6876 121.83 50.7274 121.753C50.7761 121.68 50.8187 121.575 50.8549 121.44L50.9853 120.953C51.0227 120.886 51.0808 120.795 51.1597 120.681C51.2386 120.567 51.304 120.449 51.3558 120.327L51.7474 119.461C51.9499 118.994 52.1993 118.568 52.4956 118.183C52.8009 117.801 53.1212 117.399 53.4566 116.977C53.5144 116.906 53.5872 116.814 53.6751 116.702C53.7721 116.593 53.8768 116.491 53.9893 116.395C54.1133 116.293 54.2427 116.207 54.3774 116.137C54.5212 116.069 54.6733 116.042 54.8339 116.056C54.906 116.075 54.9772 116.08 55.0476 116.07C55.1179 116.06 55.1826 116.053 55.2415 116.049C55.3257 116.024 55.4075 116.007 55.4868 115.999C55.5662 115.991 55.6374 115.996 55.7006 116.013ZM52.3148 123.077C52.0582 122.989 51.827 123.005 51.6212 123.123C51.4155 123.242 51.271 123.421 51.1877 123.66C51.1756 123.705 51.1611 123.759 51.1442 123.822C51.1363 123.887 51.1342 123.95 51.1377 124.008C51.1412 124.067 51.1607 124.121 51.1961 124.169C51.2405 124.22 51.3033 124.256 51.3845 124.278C51.4632 124.308 51.5606 124.305 51.6767 124.269C51.8042 124.226 51.9218 124.165 52.0295 124.088C52.1486 124.004 52.251 123.911 52.3365 123.808C52.431 123.708 52.4891 123.617 52.5108 123.536C52.5374 123.437 52.5243 123.341 52.4715 123.25C52.4211 123.149 52.3689 123.092 52.3148 123.077ZM69.6776 124.266C69.9842 124.348 70.1641 124.488 70.2173 124.686C70.2706 124.884 70.2719 125.077 70.2211 125.266C70.2139 125.294 70.1805 125.328 70.1209 125.37C70.0704 125.415 70.0063 125.455 69.9287 125.492C69.8601 125.532 69.7882 125.566 69.713 125.594C69.6493 125.616 69.5994 125.622 69.5633 125.612L69.3334 125.55C69.2703 125.533 69.215 125.524 69.1675 125.52C69.0455 125.507 68.9559 125.517 68.8987 125.55C68.7635 125.514 68.6514 125.517 68.5623 125.561C68.4847 125.598 68.4158 125.657 68.3556 125.738C68.2954 125.818 68.2463 125.911 68.2083 126.017C68.1793 126.125 68.1527 126.224 68.1286 126.315L67.8858 127.221L67.6249 128.194C67.5983 128.293 67.5913 128.374 67.6039 128.435C67.6164 128.496 67.6257 128.552 67.6316 128.602C67.6622 128.668 67.6703 128.728 67.6558 128.782C67.6503 128.839 67.6391 128.899 67.6222 128.962L67.462 129.397C67.4282 129.523 67.4124 129.654 67.4147 129.79C67.4193 129.917 67.4144 130.008 67.3999 130.062L67.4607 130.484L67.3593 130.862C67.3158 131.025 67.3622 131.158 67.4986 131.262C67.644 131.369 67.8007 131.469 67.969 131.562C68.1486 131.649 68.3078 131.74 68.4466 131.835C68.5968 131.924 68.6538 132.035 68.6176 132.171C68.5451 132.441 68.3826 132.543 68.1302 132.475L67.6434 132.344C67.5803 132.328 67.5127 132.309 67.4405 132.29C67.366 132.28 67.2866 132.288 67.2024 132.313L66.1018 131.931L65.7231 131.83L65.4662 131.761C65.4391 131.754 65.3748 131.741 65.2732 131.724C65.1717 131.706 65.0611 131.686 64.9414 131.664C64.8308 131.644 64.7248 131.625 64.6232 131.608C64.5216 131.59 64.4573 131.578 64.4302 131.57C64.295 131.534 64.1982 131.499 64.14 131.464C64.0907 131.431 64.0818 131.356 64.1132 131.239C64.147 131.113 64.2148 130.986 64.3165 130.859C64.4297 130.725 64.581 130.683 64.7703 130.734L65.0272 130.803L65.5546 130.944C65.6177 130.961 65.6722 130.956 65.7179 130.93C65.775 130.897 65.8154 130.855 65.8389 130.803C65.8738 130.745 65.8985 130.688 65.913 130.634C65.939 130.574 65.9568 130.525 65.9664 130.489C65.9978 130.372 66.0082 130.225 65.9976 130.048C65.996 129.874 66.0037 129.755 66.0206 129.692L66.151 129.205L66.2597 128.8L66.3612 128.421C66.3708 128.385 66.3775 128.324 66.3812 128.238C66.3964 128.145 66.4013 128.055 66.396 127.966C66.3931 127.869 66.3821 127.784 66.3629 127.711C66.3528 127.641 66.3297 127.601 66.2936 127.591C66.2756 127.586 66.2242 127.616 66.1393 127.68C66.0659 127.738 65.9717 127.819 65.8568 127.923C65.7532 128.021 65.6314 128.134 65.4911 128.26C65.3623 128.38 65.2335 128.5 65.1047 128.621C64.9849 128.743 64.8733 128.853 64.7697 128.951C64.6662 129.049 64.588 129.125 64.535 129.178C64.4484 129.213 64.3659 129.268 64.2877 129.344C64.2185 129.422 64.1525 129.506 64.0899 129.595C64.0297 129.676 63.9728 129.762 63.9191 129.854C63.8679 129.937 63.8204 130.006 63.7764 130.062C63.6705 130.169 63.5681 130.262 63.4695 130.342C63.3822 130.415 63.3076 130.477 63.2456 130.528C63.1324 130.662 63.0587 130.739 63.0244 130.759C62.9925 130.77 62.9405 130.765 62.8684 130.746C62.7602 130.717 62.6977 130.662 62.681 130.58C62.6733 130.501 62.6469 130.382 62.602 130.225L62.7149 129.372C62.6953 129.192 62.6678 129.006 62.6326 128.813C62.5974 128.62 62.5666 128.428 62.5404 128.238C62.5256 128.041 62.5186 127.85 62.5194 127.667C62.5203 127.484 62.5412 127.315 62.5823 127.162L62.6221 127.013C62.6318 126.977 62.634 126.915 62.6287 126.827C62.6258 126.729 62.6172 126.635 62.6028 126.544C62.5909 126.444 62.5709 126.357 62.5427 126.282C62.5146 126.207 62.4825 126.164 62.4464 126.154C62.4193 126.147 62.3724 126.178 62.3056 126.247C62.2388 126.316 62.1683 126.399 62.0943 126.495C62.0292 126.593 61.9675 126.698 61.909 126.808C61.853 126.909 61.8177 126.986 61.8032 127.04L61.6221 127.716L61.5532 127.973C61.4543 128.198 61.3615 128.4 61.2747 128.58C61.2042 128.735 61.1349 128.885 61.0668 129.031C61.0077 129.18 60.9733 129.272 60.9636 129.308C60.896 129.561 60.8952 129.744 60.9612 129.858C61.0272 129.973 61.1106 130.058 61.2116 130.114C61.3125 130.17 61.4044 130.223 61.4873 130.275C61.5702 130.326 61.5936 130.419 61.5573 130.554C61.5308 130.653 61.4889 130.72 61.4318 130.753C61.3812 130.797 61.3265 130.821 61.2675 130.825C61.2062 130.837 61.1485 130.836 61.0944 130.822C61.0379 130.816 60.9961 130.81 60.9691 130.803L60.4417 130.661L59.2186 130.087L58.9616 130.018L58.7318 129.957C58.6999 129.967 58.6647 129.972 58.6262 129.972C58.5649 129.984 58.5027 129.982 58.4396 129.965L58.1826 129.896C58.1556 129.889 58.1162 129.874 58.0645 129.85C58.0129 129.827 57.9636 129.794 57.9168 129.753C57.8675 129.72 57.8239 129.684 57.7861 129.645C57.7573 129.609 57.7477 129.572 57.7574 129.536C57.7815 129.446 57.8336 129.378 57.9136 129.332C58.0051 129.279 58.0974 129.241 58.1906 129.217C58.2929 129.196 58.387 129.188 58.4729 129.192C58.5589 129.195 58.6154 129.201 58.6425 129.208L58.9129 129.28C58.94 129.288 58.9953 129.298 59.0788 129.31C59.1624 129.323 59.2516 129.333 59.3466 129.339C59.4506 129.347 59.5682 129.359 59.6992 129.375C59.7792 129.329 59.8713 129.238 59.9755 129.101C60.0821 128.956 60.1796 128.808 60.2682 128.658C60.3592 128.499 60.4363 128.355 60.4996 128.227C60.5743 128.093 60.6165 128.007 60.6261 127.971L60.7566 127.484L60.7965 127.336C60.8307 127.316 60.8642 127.281 60.8967 127.232C60.9316 127.174 60.962 127.114 60.988 127.054C61.0163 126.984 61.0401 126.913 61.0595 126.841L61.2225 126.232C61.2322 126.196 61.2512 126.143 61.2795 126.074C61.3169 126.006 61.3542 125.939 61.3916 125.872C61.4404 125.798 61.4904 125.72 61.5416 125.637L61.643 125.258C61.6756 125.209 61.7081 125.16 61.7406 125.11C61.7707 125.07 61.7975 125.024 61.821 124.972C61.8446 124.921 61.8648 124.863 61.8817 124.8L61.9614 124.503C61.9686 124.476 61.9708 124.413 61.9679 124.316C61.9674 124.21 61.9625 124.102 61.953 123.993C61.9483 123.866 61.9428 123.725 61.9364 123.568C61.9082 123.493 61.8608 123.418 61.7941 123.342C61.7275 123.266 61.6654 123.191 61.6077 123.118C61.5657 123.058 61.509 123 61.4375 122.942C61.3774 122.878 61.3358 122.799 61.3124 122.705L61.3523 122.557C61.3668 122.503 61.4002 122.468 61.4525 122.453C61.5048 122.438 61.565 122.43 61.6329 122.429C61.7008 122.428 61.7799 122.439 61.87 122.464L62.2081 122.554C62.2983 122.578 62.3626 122.591 62.4011 122.591C62.451 122.585 62.4873 122.576 62.5102 122.563C62.5355 122.54 62.5538 122.526 62.5653 122.519C62.5791 122.504 62.5996 122.5 62.6266 122.507L63.2622 122.677L63.5191 122.746L63.8579 122.996C63.8853 123.255 63.9026 123.569 63.91 123.938C63.9288 124.3 63.9416 124.685 63.9483 125.093C63.955 125.501 63.9572 125.907 63.9549 126.312C63.9641 126.711 63.9739 127.071 63.9843 127.393C64.0038 127.717 64.0242 127.983 64.0456 128.192C64.0694 128.391 64.1038 128.497 64.1489 128.509C64.179 128.469 64.2124 128.435 64.2491 128.406C64.2768 128.375 64.309 128.345 64.3457 128.316C64.3939 128.28 64.4351 128.253 64.4694 128.233C64.7278 127.809 65.0362 127.38 65.3944 126.944C65.7617 126.511 66.0958 126.094 66.3969 125.691C66.4476 125.502 66.5452 125.354 66.6896 125.248C66.8455 125.135 67.0119 125.001 67.1888 124.845C67.2328 124.789 67.2726 124.713 67.3081 124.616C67.3461 124.511 67.3874 124.411 67.432 124.316C67.4881 124.215 67.5552 124.127 67.6335 124.051C67.7117 123.976 67.8188 123.937 67.9547 123.934L68.4821 124.076L68.6424 124.235C68.7686 124.269 68.8882 124.291 69.0012 124.302C69.1167 124.304 69.2276 124.305 69.334 124.304C69.4428 124.295 69.5574 124.282 69.6776 124.266ZM73.602 126.897C73.7913 126.948 73.9394 127.026 74.0463 127.132C74.1646 127.231 74.2487 127.351 74.2984 127.49C74.3481 127.628 74.3705 127.779 74.3655 127.942C74.3605 128.105 74.3305 128.271 74.2756 128.44C74.2104 128.683 74.0671 128.858 73.8457 128.963C73.6268 129.058 73.4081 129.135 73.1898 129.193C72.9871 129.264 72.7745 129.318 72.552 129.355C72.3386 129.395 72.1317 129.445 71.9314 129.508C71.7401 129.572 71.5666 129.661 71.4107 129.774C71.2639 129.889 71.1558 130.058 71.0864 130.281L70.9342 130.849C70.8751 130.998 70.8656 131.159 70.9057 131.334C70.9481 131.5 71.0325 131.6 71.1587 131.634C71.1653 131.646 71.205 131.642 71.2778 131.623C71.3505 131.603 71.429 131.581 71.5132 131.555C71.6089 131.523 71.7 131.489 71.7866 131.455C71.8822 131.422 71.9517 131.397 71.995 131.38C72.1471 131.353 72.2641 131.331 72.3459 131.314C72.4391 131.291 72.5013 131.293 72.5326 131.321C72.5957 131.338 72.6473 131.361 72.6876 131.392C72.7278 131.422 72.7323 131.495 72.7008 131.613C72.6297 131.806 72.4921 131.977 72.2881 132.125C72.0865 132.264 71.8739 132.391 71.6501 132.505C71.4287 132.61 71.2167 132.698 71.014 132.769C70.8113 132.841 70.6756 132.896 70.607 132.936C70.4175 133.03 70.254 133.063 70.1163 133.036C69.9877 133.011 69.8558 132.981 69.7205 132.945C69.6418 132.914 69.5658 132.855 69.4926 132.768C69.4284 132.683 69.3711 132.59 69.3207 132.49C69.2817 132.382 69.2563 132.279 69.2444 132.179C69.2325 132.079 69.2395 131.999 69.2654 131.938L69.327 131.709C69.3439 131.645 69.344 131.573 69.3273 131.491C69.3189 131.45 69.3093 131.414 69.2986 131.382L69.4116 131.123L69.4696 130.906C69.4792 130.87 69.5136 130.778 69.5727 130.629C69.6342 130.472 69.7027 130.307 69.778 130.134C69.8558 129.952 69.9254 129.782 69.9869 129.624C70.0599 129.46 70.1081 129.352 70.1316 129.301C70.1749 129.283 70.2002 129.261 70.2075 129.234C70.2147 129.207 70.2174 129.179 70.2157 129.149C70.2139 129.12 70.2179 129.087 70.2275 129.051C70.2396 129.006 70.2709 128.961 70.3215 128.917C70.3505 128.809 70.4032 128.702 70.4797 128.597C70.5236 128.541 70.5676 128.485 70.6115 128.429L70.9204 128.034C70.9916 127.84 71.1406 127.663 71.3675 127.501C71.5967 127.331 71.847 127.19 72.1183 127.079C72.3986 126.971 72.6737 126.9 72.9437 126.866C73.2161 126.823 73.4355 126.833 73.602 126.897ZM72.7217 127.748C72.6766 127.736 72.6219 127.76 72.5575 127.82C72.4955 127.871 72.4311 127.931 72.3643 128C72.2926 128.087 72.2198 128.179 72.1457 128.275C72.1246 128.318 72.0966 128.368 72.0617 128.427C72.0291 128.476 72.0011 128.526 71.9776 128.578C71.9565 128.621 71.9502 128.662 71.9585 128.703C71.9693 128.735 72.0017 128.758 72.0558 128.773C72.0985 128.794 72.1685 128.803 72.2659 128.8C72.3633 128.797 72.4644 128.781 72.569 128.751C72.6827 128.723 72.7852 128.683 72.8767 128.63C72.9795 128.571 73.0476 128.497 73.0807 128.41L73.1423 128.18C73.1544 128.135 73.1518 128.091 73.1344 128.047C73.117 128.004 73.0927 127.968 73.0615 127.941C73.0326 127.904 72.9936 127.869 72.9444 127.837L72.7217 127.748ZM79.9919 122.478C80.0255 122.497 80.0736 122.534 80.1361 122.589C80.1985 122.645 80.2541 122.708 80.3027 122.779C80.3603 122.852 80.4065 122.932 80.4413 123.019C80.4784 123.097 80.4862 123.176 80.4644 123.257C80.3813 123.351 80.3073 123.447 80.2422 123.545C80.1796 123.635 80.1158 123.729 80.0507 123.828C79.9881 123.917 79.9299 124.008 79.8763 124.1C79.833 124.117 79.7837 124.157 79.7283 124.219C79.6729 124.282 79.6196 124.355 79.5684 124.437C79.5172 124.52 79.4693 124.609 79.4247 124.703C79.3825 124.789 79.353 124.863 79.3361 124.926C79.253 125.02 79.1744 125.115 79.1003 125.211C79.0287 125.298 78.9534 125.398 78.8745 125.513C78.8046 125.629 78.7356 125.76 78.6675 125.906C78.6216 126.078 78.5264 126.289 78.3818 126.54C78.2396 126.782 78.1113 127.009 77.9968 127.22C77.9654 127.337 77.9033 127.46 77.8106 127.59C77.7203 127.711 77.648 127.836 77.5937 127.967C77.5298 128.133 77.4791 128.25 77.4418 128.317C77.4134 128.387 77.3887 128.443 77.3676 128.486C77.349 128.519 77.3303 128.553 77.3116 128.587C77.2929 128.62 77.2637 128.675 77.2239 128.752C77.1883 128.848 77.1507 128.935 77.1109 129.011C77.0825 129.081 77.0485 129.154 77.0087 129.23C76.9689 129.307 76.921 129.395 76.865 129.496C76.809 129.597 76.7445 129.73 76.6715 129.894C76.6089 129.983 76.5574 130.085 76.517 130.2C76.4765 130.315 76.4181 130.425 76.3416 130.53C76.2159 130.603 76.049 130.63 75.841 130.613C75.633 130.596 75.462 130.531 75.3281 130.418C75.3558 130.387 75.3769 130.344 75.3914 130.29C75.4059 130.236 75.4147 130.185 75.4177 130.137C75.4322 130.083 75.4455 130.034 75.4576 129.989C75.4697 129.944 75.4871 129.914 75.51 129.901L76.23 128.08L76.6844 126.708L77.115 125.534C77.1247 125.498 77.1401 125.458 77.1612 125.416C77.1847 125.364 77.1923 125.318 77.1839 125.277C77.1707 125.254 77.1416 125.237 77.0965 125.225C77.0514 125.212 77.0174 125.213 76.9946 125.226C76.908 125.261 76.8298 125.264 76.7601 125.236C76.6904 125.208 76.6333 125.168 76.5889 125.118C76.5348 125.103 76.5126 125.078 76.5222 125.042L76.5404 124.974C76.5645 124.884 76.5974 124.815 76.6389 124.769C76.6804 124.722 76.7298 124.682 76.7869 124.649C76.8441 124.616 76.907 124.58 76.9756 124.54C77.0532 124.503 77.1368 124.443 77.2265 124.361C77.4491 124.179 77.6588 124.027 77.8556 123.906C78.0613 123.787 78.2569 123.671 78.4422 123.556C78.6389 123.435 78.8303 123.298 79.0162 123.145C79.2022 122.991 79.3879 122.785 79.5734 122.526C79.6323 122.522 79.6879 122.513 79.7403 122.498C79.7902 122.492 79.8356 122.485 79.8765 122.476C79.9264 122.47 79.9649 122.471 79.9919 122.478ZM73.9874 132.392C74.0699 132.337 74.1352 132.292 74.1833 132.256C74.2405 132.223 74.2919 132.193 74.3376 132.167C74.3833 132.141 74.4324 132.12 74.4847 132.105C74.537 132.09 74.6041 132.074 74.6858 132.057C74.7995 132.03 74.8807 131.979 74.9295 131.905C74.9807 131.822 75.0559 131.794 75.1551 131.821C75.2272 131.84 75.281 131.874 75.3164 131.922C75.3608 131.973 75.3881 132.033 75.3982 132.103C75.4198 132.167 75.439 132.24 75.4557 132.322C75.4724 132.403 75.4949 132.482 75.523 132.557C75.5902 132.739 75.6675 132.92 75.7551 133.098C75.8426 133.276 75.8698 133.409 75.8367 133.496C75.8101 133.595 75.7237 133.683 75.5775 133.76C75.4313 133.837 75.3041 133.933 75.1957 134.049C75.1102 134.152 75.0217 134.23 74.9303 134.283C74.8454 134.347 74.7489 134.364 74.6407 134.335C74.5416 134.309 74.4746 134.252 74.4398 134.166C74.4117 134.09 74.379 134.014 74.3418 133.936C74.2571 133.856 74.1971 133.791 74.1617 133.743C74.1353 133.697 74.0993 133.615 74.0538 133.497C74.0436 133.427 74.0332 133.375 74.0224 133.344C74.014 133.303 73.9987 133.27 73.9765 133.244C73.9633 133.221 73.9366 133.195 73.8963 133.165C73.8651 133.137 73.8216 133.101 73.7657 133.057C73.7261 132.989 73.6844 132.91 73.6406 132.821C73.6059 132.734 73.5981 132.655 73.6175 132.583C73.644 132.484 73.6958 132.435 73.7728 132.436C73.8497 132.437 73.9213 132.423 73.9874 132.392Z" fill="black"/>
</svg>
