<svg width="271" height="284" viewBox="0 0 271 284" fill="none" xmlns="http://www.w3.org/2000/svg">
<path d="M9.47469 40.425C11.6156 30.6332 11.1229 18.6868 11.1229 8.6298H23.7422C28.4009 8.6298 34.0504 8.65572 38.6524 7.69897C42.8866 6.81868 47.3401 6.86612 51.8488 6.86612C56.9185 6.86612 62.1792 5.10244 67.3588 5.10244C75.7868 5.10244 84.2658 3.83544 92.8089 4.2696C107.347 5.0084 121.745 6.86612 136.34 6.86612C174.871 6.86612 213.329 2.45693 251.851 2.45693C254.087 2.45693 259.485 1.30856 261.705 2.65289C263.026 3.45238 262.048 11.9499 262.048 13.9208C262.048 24.7566 260.924 36.4828 262.434 47.1858C263.592 55.3984 262.479 63.9354 263.248 72.2202C264.138 81.8171 265.627 91.347 266.504 100.929C267.877 115.931 265.133 130.753 265.133 145.658C265.133 154.429 266.1 163.002 265.519 171.77C264.967 180.102 265.133 188.453 265.133 196.805C265.133 204.521 263.128 212.021 263.633 219.83C264.134 227.551 265.412 235.354 266.504 243.003C267.322 248.73 266.823 254.752 268.046 260.346C268.892 264.212 268.989 267.897 268.989 271.859C268.989 276.832 269.451 279.354 264.362 279.354C252.007 279.354 239.944 282 227.686 282C220.54 282 213.44 281.247 206.349 281.118C191.035 280.84 175.246 282.654 160.033 280.677C132.878 277.149 105.26 283.581 78.0273 281.559C65.2368 280.609 52.3224 280.72 39.5093 280.187C31.8773 279.87 24.2272 278.473 16.6299 278.473C13.9053 278.473 3.39059 279.256 2.19097 274.455C1.3239 270.985 3.69056 266.132 3.69056 262.6C3.69056 254.327 5.233 246.58 5.233 238.349C5.233 218.263 6.77543 198.383 6.77543 178.335C6.77543 168.837 6.00421 159.367 6.00421 149.773C6.00421 133.703 7.73241 117.856 7.54665 101.713C7.39051 88.1448 5.77544 74.5942 7.54665 61.0503C8.43157 54.2835 8.02209 47.0688 9.47469 40.425Z" fill="#FCFF77" stroke="black" stroke-width="3" stroke-linecap="round" stroke-linejoin="round"/>
</svg>
